<mxfile host="app.diagrams.net" agent="Mozilla/5.0 (Windows NT 10.0; Win64; x64) AppleWebKit/537.36 (KHTML, like Gecko) Chrome/139.0.0.0 Safari/537.36" version="28.2.0">
  <diagram name="第 1 页" id="KGEtSgJPSkYe_dZGQtCE">
    <mxGraphModel dx="2975" dy="2761" grid="0" gridSize="10" guides="1" tooltips="1" connect="1" arrows="1" fold="1" page="0" pageScale="1" pageWidth="827" pageHeight="1169" math="0" shadow="0">
      <root>
        <mxCell id="0" />
        <mxCell id="1" parent="0" />
        <mxCell id="RdfNYfSdjUfIYxGeZhfG-112" value="" style="rounded=0;whiteSpace=wrap;html=1;fillColor=#d5e8d4;strokeColor=#82b366;" vertex="1" parent="1">
          <mxGeometry x="907" y="-1305" width="464" height="557.5" as="geometry" />
        </mxCell>
        <mxCell id="z9zd0fYM2otDX-iHmuw7-230" value="" style="rounded=0;whiteSpace=wrap;html=1;fillColor=#f5f5f5;fontColor=#333333;strokeColor=#666666;" parent="1" vertex="1">
          <mxGeometry x="602" y="-1307.5" width="250" height="286.5" as="geometry" />
        </mxCell>
        <mxCell id="RdfNYfSdjUfIYxGeZhfG-104" value="" style="rounded=1;whiteSpace=wrap;html=1;fillColor=none;dashed=1;" vertex="1" parent="1">
          <mxGeometry x="1159" y="-1181.5" width="144" height="331" as="geometry" />
        </mxCell>
        <mxCell id="RdfNYfSdjUfIYxGeZhfG-90" value="" style="rounded=1;whiteSpace=wrap;html=1;fillColor=none;dashed=1;" vertex="1" parent="1">
          <mxGeometry x="969" y="-1181.5" width="149" height="207" as="geometry" />
        </mxCell>
        <mxCell id="z9zd0fYM2otDX-iHmuw7-217" value="" style="rounded=0;whiteSpace=wrap;html=1;fillColor=none;" parent="1" vertex="1">
          <mxGeometry x="602" y="-991" width="243" height="349" as="geometry" />
        </mxCell>
        <mxCell id="z9zd0fYM2otDX-iHmuw7-202" value="" style="rounded=1;whiteSpace=wrap;html=1;fillColor=none;dashed=1;" parent="1" vertex="1">
          <mxGeometry x="675" y="-836.5" width="137" height="108" as="geometry" />
        </mxCell>
        <mxCell id="z9zd0fYM2otDX-iHmuw7-177" value="" style="rounded=0;whiteSpace=wrap;html=1;fillColor=#ffe6cc;strokeColor=#d79b00;" parent="1" vertex="1">
          <mxGeometry x="-155.5" y="-907" width="284.5" height="458" as="geometry" />
        </mxCell>
        <mxCell id="z9zd0fYM2otDX-iHmuw7-150" value="&lt;div style=&quot;&quot;&gt;&lt;br&gt;&lt;/div&gt;" style="rounded=1;whiteSpace=wrap;html=1;align=center;fillColor=#fff2cc;strokeColor=#d6b656;" parent="1" vertex="1">
          <mxGeometry x="221.5" y="-1330" width="342" height="611" as="geometry" />
        </mxCell>
        <mxCell id="z9zd0fYM2otDX-iHmuw7-23" value="&lt;div style=&quot;&quot;&gt;&lt;br&gt;&lt;/div&gt;" style="rounded=1;whiteSpace=wrap;html=1;align=center;fillColor=#fff2cc;strokeColor=#d6b656;" parent="1" vertex="1">
          <mxGeometry x="-174" y="-1323" width="313.5" height="401" as="geometry" />
        </mxCell>
        <mxCell id="z9zd0fYM2otDX-iHmuw7-154" style="edgeStyle=orthogonalEdgeStyle;rounded=0;orthogonalLoop=1;jettySize=auto;html=1;" parent="1" source="z9zd0fYM2otDX-iHmuw7-79" target="z9zd0fYM2otDX-iHmuw7-151" edge="1">
          <mxGeometry relative="1" as="geometry" />
        </mxCell>
        <mxCell id="z9zd0fYM2otDX-iHmuw7-79" value="" style="rounded=1;whiteSpace=wrap;html=1;fillColor=none;dashed=1;" parent="1" vertex="1">
          <mxGeometry x="278" y="-1152.5" width="247" height="277.5" as="geometry" />
        </mxCell>
        <mxCell id="z9zd0fYM2otDX-iHmuw7-46" value="" style="rounded=0;whiteSpace=wrap;html=1;fillColor=none;" parent="1" vertex="1">
          <mxGeometry x="-423" y="-1317" width="199" height="273" as="geometry" />
        </mxCell>
        <mxCell id="z9zd0fYM2otDX-iHmuw7-63" style="edgeStyle=orthogonalEdgeStyle;rounded=0;orthogonalLoop=1;jettySize=auto;html=1;" parent="1" source="z9zd0fYM2otDX-iHmuw7-24" edge="1">
          <mxGeometry relative="1" as="geometry">
            <mxPoint x="-29.685714285714084" y="-1179" as="targetPoint" />
          </mxGeometry>
        </mxCell>
        <mxCell id="z9zd0fYM2otDX-iHmuw7-24" value="&lt;div style=&quot;text-align: left;&quot;&gt;&lt;span style=&quot;font-size: 14px; background-color: transparent; color: light-dark(rgb(0, 0, 0), rgb(255, 255, 255));&quot;&gt;&lt;b&gt;conv&lt;/b&gt;&lt;/span&gt;&lt;/div&gt;&lt;div&gt;k=1,s=1&lt;/div&gt;" style="rounded=1;whiteSpace=wrap;html=1;" parent="1" vertex="1">
          <mxGeometry x="-66.5" y="-1241" width="73" height="31" as="geometry" />
        </mxCell>
        <mxCell id="z9zd0fYM2otDX-iHmuw7-25" value="h×w×c_in" style="text;html=1;align=center;verticalAlign=middle;whiteSpace=wrap;rounded=0;" parent="1" vertex="1">
          <mxGeometry x="-27.5" y="-1274" width="60" height="30" as="geometry" />
        </mxCell>
        <mxCell id="z9zd0fYM2otDX-iHmuw7-26" value="h×w×c_out" style="text;html=1;align=center;verticalAlign=middle;whiteSpace=wrap;rounded=0;" parent="1" vertex="1">
          <mxGeometry x="-18.5" y="-1210" width="60" height="30" as="geometry" />
        </mxCell>
        <mxCell id="z9zd0fYM2otDX-iHmuw7-28" value="h×w×0.5c_out" style="text;html=1;align=center;verticalAlign=middle;whiteSpace=wrap;rounded=0;" parent="1" vertex="1">
          <mxGeometry x="-148.5" y="-1190" width="60" height="30" as="geometry" />
        </mxCell>
        <mxCell id="z9zd0fYM2otDX-iHmuw7-31" value="&lt;b&gt;Bottleneck&lt;/b&gt;&lt;div style=&quot;text-align: left;&quot;&gt;true&lt;/div&gt;" style="rounded=1;whiteSpace=wrap;html=1;" parent="1" vertex="1">
          <mxGeometry x="-64.25" y="-1124" width="67.75" height="32" as="geometry" />
        </mxCell>
        <mxCell id="z9zd0fYM2otDX-iHmuw7-36" value="" style="edgeStyle=orthogonalEdgeStyle;rounded=0;orthogonalLoop=1;jettySize=auto;html=1;" parent="1" source="z9zd0fYM2otDX-iHmuw7-33" target="z9zd0fYM2otDX-iHmuw7-34" edge="1">
          <mxGeometry relative="1" as="geometry" />
        </mxCell>
        <mxCell id="z9zd0fYM2otDX-iHmuw7-33" value="&lt;div style=&quot;text-align: left;&quot;&gt;&lt;span style=&quot;font-size: 14px; background-color: transparent; color: light-dark(rgb(0, 0, 0), rgb(255, 255, 255));&quot;&gt;&lt;b&gt;conv&lt;/b&gt;&lt;/span&gt;&lt;/div&gt;&lt;div&gt;k=1,s=1,p=1&lt;/div&gt;" style="rounded=1;whiteSpace=wrap;html=1;" parent="1" vertex="1">
          <mxGeometry x="-364" y="-1231" width="89" height="33" as="geometry" />
        </mxCell>
        <mxCell id="z9zd0fYM2otDX-iHmuw7-43" value="" style="edgeStyle=orthogonalEdgeStyle;rounded=0;orthogonalLoop=1;jettySize=auto;html=1;" parent="1" source="z9zd0fYM2otDX-iHmuw7-34" target="z9zd0fYM2otDX-iHmuw7-41" edge="1">
          <mxGeometry relative="1" as="geometry" />
        </mxCell>
        <mxCell id="z9zd0fYM2otDX-iHmuw7-34" value="&lt;div style=&quot;text-align: left;&quot;&gt;&lt;span style=&quot;font-size: 14px; background-color: transparent; color: light-dark(rgb(0, 0, 0), rgb(255, 255, 255));&quot;&gt;&lt;b&gt;conv&lt;/b&gt;&lt;/span&gt;&lt;/div&gt;&lt;div&gt;k=1,s=1,p=1&lt;/div&gt;" style="rounded=1;whiteSpace=wrap;html=1;" parent="1" vertex="1">
          <mxGeometry x="-365" y="-1169" width="90" height="31" as="geometry" />
        </mxCell>
        <mxCell id="z9zd0fYM2otDX-iHmuw7-35" value="" style="endArrow=classic;html=1;rounded=0;entryX=0.5;entryY=0;entryDx=0;entryDy=0;" parent="1" target="z9zd0fYM2otDX-iHmuw7-33" edge="1">
          <mxGeometry width="50" height="50" relative="1" as="geometry">
            <mxPoint x="-319" y="-1270" as="sourcePoint" />
            <mxPoint x="-99" y="-1129" as="targetPoint" />
          </mxGeometry>
        </mxCell>
        <mxCell id="z9zd0fYM2otDX-iHmuw7-42" style="edgeStyle=orthogonalEdgeStyle;rounded=0;orthogonalLoop=1;jettySize=auto;html=1;entryX=0;entryY=0.5;entryDx=0;entryDy=0;" parent="1" target="z9zd0fYM2otDX-iHmuw7-41" edge="1">
          <mxGeometry relative="1" as="geometry">
            <mxPoint x="-409" y="-1054" as="targetPoint" />
            <mxPoint x="-319" y="-1255" as="sourcePoint" />
            <Array as="points">
              <mxPoint x="-400" y="-1256" />
              <mxPoint x="-400" y="-1093" />
              <mxPoint x="-335" y="-1093" />
            </Array>
          </mxGeometry>
        </mxCell>
        <mxCell id="z9zd0fYM2otDX-iHmuw7-37" value="h×w×c" style="text;html=1;align=center;verticalAlign=middle;whiteSpace=wrap;rounded=0;" parent="1" vertex="1">
          <mxGeometry x="-316" y="-1271" width="60" height="30" as="geometry" />
        </mxCell>
        <mxCell id="z9zd0fYM2otDX-iHmuw7-38" value="h×w×0.5c" style="text;html=1;align=center;verticalAlign=middle;whiteSpace=wrap;rounded=0;" parent="1" vertex="1">
          <mxGeometry x="-309" y="-1199" width="60" height="30" as="geometry" />
        </mxCell>
        <mxCell id="z9zd0fYM2otDX-iHmuw7-39" value="h×w×c" style="text;html=1;align=center;verticalAlign=middle;whiteSpace=wrap;rounded=0;" parent="1" vertex="1">
          <mxGeometry x="-316" y="-1138.5" width="60" height="30" as="geometry" />
        </mxCell>
        <mxCell id="z9zd0fYM2otDX-iHmuw7-41" value="" style="shape=orEllipse;perimeter=ellipsePerimeter;whiteSpace=wrap;html=1;backgroundOutline=1;" parent="1" vertex="1">
          <mxGeometry x="-334.5" y="-1108.5" width="30" height="30" as="geometry" />
        </mxCell>
        <mxCell id="z9zd0fYM2otDX-iHmuw7-44" value="h×w×c" style="text;html=1;align=center;verticalAlign=middle;whiteSpace=wrap;rounded=0;" parent="1" vertex="1">
          <mxGeometry x="-401" y="-1132" width="60" height="30" as="geometry" />
        </mxCell>
        <mxCell id="z9zd0fYM2otDX-iHmuw7-48" value="&lt;b&gt;&lt;font style=&quot;font-size: 14px;&quot;&gt;Bottleneck&lt;/font&gt;&lt;/b&gt;&lt;div style=&quot;text-align: left;&quot;&gt;&lt;font size=&quot;3&quot;&gt;true&lt;/font&gt;&lt;/div&gt;" style="text;html=1;align=center;verticalAlign=middle;whiteSpace=wrap;rounded=0;" parent="1" vertex="1">
          <mxGeometry x="-412" y="-1308.75" width="74" height="36.5" as="geometry" />
        </mxCell>
        <mxCell id="z9zd0fYM2otDX-iHmuw7-49" value="&lt;font style=&quot;font-size: 10px;&quot;&gt;就是一个残差连接&lt;/font&gt;" style="shape=note;whiteSpace=wrap;html=1;backgroundOutline=1;fontColor=#000000;darkOpacity=0.05;fillColor=#FFF9B2;strokeColor=none;fillStyle=solid;direction=west;gradientDirection=north;gradientColor=#FFF2A1;shadow=1;size=20;pointerEvents=1;" parent="1" vertex="1">
          <mxGeometry x="-316" y="-1298" width="87" height="15" as="geometry" />
        </mxCell>
        <mxCell id="z9zd0fYM2otDX-iHmuw7-50" value="" style="endArrow=classic;html=1;rounded=0;exitX=0.5;exitY=1;exitDx=0;exitDy=0;" parent="1" source="z9zd0fYM2otDX-iHmuw7-41" edge="1">
          <mxGeometry width="50" height="50" relative="1" as="geometry">
            <mxPoint x="-307" y="-1068" as="sourcePoint" />
            <mxPoint x="-319" y="-1054" as="targetPoint" />
          </mxGeometry>
        </mxCell>
        <mxCell id="z9zd0fYM2otDX-iHmuw7-56" value="" style="edgeStyle=orthogonalEdgeStyle;rounded=0;orthogonalLoop=1;jettySize=auto;html=1;" parent="1" target="z9zd0fYM2otDX-iHmuw7-52" edge="1">
          <mxGeometry relative="1" as="geometry">
            <mxPoint x="-32" y="-1022" as="sourcePoint" />
          </mxGeometry>
        </mxCell>
        <mxCell id="z9zd0fYM2otDX-iHmuw7-81" style="edgeStyle=orthogonalEdgeStyle;rounded=0;orthogonalLoop=1;jettySize=auto;html=1;" parent="1" source="z9zd0fYM2otDX-iHmuw7-52" edge="1">
          <mxGeometry relative="1" as="geometry">
            <mxPoint x="-30.25" y="-937" as="targetPoint" />
          </mxGeometry>
        </mxCell>
        <mxCell id="z9zd0fYM2otDX-iHmuw7-52" value="&lt;div style=&quot;text-align: left;&quot;&gt;&lt;span style=&quot;font-size: 14px; background-color: transparent; color: light-dark(rgb(0, 0, 0), rgb(255, 255, 255));&quot;&gt;&lt;b&gt;conv&lt;/b&gt;&lt;/span&gt;&lt;/div&gt;&lt;div&gt;k=1,s=1&lt;/div&gt;" style="rounded=1;whiteSpace=wrap;html=1;" parent="1" vertex="1">
          <mxGeometry x="-66.5" y="-995" width="71.75" height="31" as="geometry" />
        </mxCell>
        <mxCell id="z9zd0fYM2otDX-iHmuw7-75" value="h×w×0.5(n+2)c_out" style="text;html=1;align=center;verticalAlign=middle;whiteSpace=wrap;rounded=0;" parent="1" vertex="1">
          <mxGeometry x="-3.75" y="-1029" width="60" height="30" as="geometry" />
        </mxCell>
        <mxCell id="z9zd0fYM2otDX-iHmuw7-78" value="" style="endArrow=classic;html=1;rounded=0;entryX=0.5;entryY=0;entryDx=0;entryDy=0;" parent="1" target="z9zd0fYM2otDX-iHmuw7-24" edge="1">
          <mxGeometry width="50" height="50" relative="1" as="geometry">
            <mxPoint x="-29.5" y="-1278" as="sourcePoint" />
            <mxPoint x="386.5" y="-1090" as="targetPoint" />
          </mxGeometry>
        </mxCell>
        <mxCell id="z9zd0fYM2otDX-iHmuw7-80" value="&lt;br&gt;&lt;div style=&quot;forced-color-adjust: none; color: rgb(0, 0, 0); font-family: Helvetica; font-size: 12px; font-style: normal; font-variant-ligatures: normal; font-variant-caps: normal; font-weight: 400; letter-spacing: normal; orphans: 2; text-align: center; text-indent: 0px; text-transform: none; widows: 2; word-spacing: 0px; -webkit-text-stroke-width: 0px; white-space: normal; background-color: rgb(236, 236, 236); text-decoration-thickness: initial; text-decoration-style: initial; text-decoration-color: initial;&quot;&gt;&lt;span style=&quot;forced-color-adjust: none; font-size: 14px;&quot;&gt;&lt;b style=&quot;forced-color-adjust: none;&quot;&gt;c3k2&lt;/b&gt;&lt;/span&gt;&lt;/div&gt;&lt;div style=&quot;forced-color-adjust: none; color: rgb(0, 0, 0); font-family: Helvetica; font-size: 12px; font-style: normal; font-variant-ligatures: normal; font-variant-caps: normal; font-weight: 400; letter-spacing: normal; orphans: 2; text-align: center; text-indent: 0px; text-transform: none; widows: 2; word-spacing: 0px; -webkit-text-stroke-width: 0px; white-space: normal; background-color: rgb(236, 236, 236); text-decoration-thickness: initial; text-decoration-style: initial; text-decoration-color: initial;&quot;&gt;false&lt;/div&gt;&lt;div&gt;&lt;br&gt;&lt;/div&gt;" style="text;html=1;align=center;verticalAlign=middle;whiteSpace=wrap;rounded=0;" parent="1" vertex="1">
          <mxGeometry x="-149" y="-1305" width="59" height="31" as="geometry" />
        </mxCell>
        <mxCell id="z9zd0fYM2otDX-iHmuw7-83" value="&lt;font style=&quot;font-size: 10px;&quot;&gt;就是V8的c2f 结构&lt;/font&gt;" style="shape=note;whiteSpace=wrap;html=1;backgroundOutline=1;fontColor=#000000;darkOpacity=0.05;fillColor=#FFF9B2;strokeColor=none;fillStyle=solid;direction=west;gradientDirection=north;gradientColor=#FFF2A1;shadow=1;size=20;pointerEvents=1;" parent="1" vertex="1">
          <mxGeometry x="24" y="-1299.5" width="87" height="15" as="geometry" />
        </mxCell>
        <mxCell id="z9zd0fYM2otDX-iHmuw7-92" style="edgeStyle=orthogonalEdgeStyle;rounded=0;orthogonalLoop=1;jettySize=auto;html=1;" parent="1" source="z9zd0fYM2otDX-iHmuw7-93" edge="1">
          <mxGeometry relative="1" as="geometry">
            <mxPoint x="360.3142857142857" y="-1187" as="targetPoint" />
          </mxGeometry>
        </mxCell>
        <mxCell id="z9zd0fYM2otDX-iHmuw7-93" value="&lt;div style=&quot;text-align: left;&quot;&gt;&lt;span style=&quot;font-size: 14px; background-color: transparent; color: light-dark(rgb(0, 0, 0), rgb(255, 255, 255));&quot;&gt;&lt;b&gt;conv&lt;/b&gt;&lt;/span&gt;&lt;/div&gt;&lt;div&gt;k=1,s=1&lt;/div&gt;" style="rounded=1;whiteSpace=wrap;html=1;" parent="1" vertex="1">
          <mxGeometry x="323.5" y="-1249" width="73" height="31" as="geometry" />
        </mxCell>
        <mxCell id="z9zd0fYM2otDX-iHmuw7-94" value="h×w×c_in" style="text;html=1;align=center;verticalAlign=middle;whiteSpace=wrap;rounded=0;" parent="1" vertex="1">
          <mxGeometry x="362.5" y="-1282" width="60" height="30" as="geometry" />
        </mxCell>
        <mxCell id="z9zd0fYM2otDX-iHmuw7-95" value="h×w×c_out" style="text;html=1;align=center;verticalAlign=middle;whiteSpace=wrap;rounded=0;" parent="1" vertex="1">
          <mxGeometry x="371.5" y="-1218" width="60" height="30" as="geometry" />
        </mxCell>
        <mxCell id="z9zd0fYM2otDX-iHmuw7-120" value="" style="edgeStyle=orthogonalEdgeStyle;rounded=0;orthogonalLoop=1;jettySize=auto;html=1;" parent="1" target="z9zd0fYM2otDX-iHmuw7-119" edge="1">
          <mxGeometry relative="1" as="geometry">
            <mxPoint x="360.3142857142857" y="-1157" as="sourcePoint" />
          </mxGeometry>
        </mxCell>
        <mxCell id="z9zd0fYM2otDX-iHmuw7-122" style="edgeStyle=orthogonalEdgeStyle;rounded=0;orthogonalLoop=1;jettySize=auto;html=1;entryX=0.5;entryY=0;entryDx=0;entryDy=0;" parent="1" target="z9zd0fYM2otDX-iHmuw7-123" edge="1">
          <mxGeometry relative="1" as="geometry">
            <mxPoint x="590.4285714285716" y="-1045.4285714285713" as="targetPoint" />
            <mxPoint x="362" y="-1148" as="sourcePoint" />
          </mxGeometry>
        </mxCell>
        <mxCell id="z9zd0fYM2otDX-iHmuw7-104" value="" style="edgeStyle=orthogonalEdgeStyle;rounded=0;orthogonalLoop=1;jettySize=auto;html=1;" parent="1" target="z9zd0fYM2otDX-iHmuw7-107" edge="1">
          <mxGeometry relative="1" as="geometry">
            <mxPoint x="362.4568965517242" y="-822.9999999999998" as="sourcePoint" />
          </mxGeometry>
        </mxCell>
        <mxCell id="z9zd0fYM2otDX-iHmuw7-106" style="edgeStyle=orthogonalEdgeStyle;rounded=0;orthogonalLoop=1;jettySize=auto;html=1;" parent="1" edge="1">
          <mxGeometry relative="1" as="geometry">
            <mxPoint x="363.25" y="-742" as="targetPoint" />
            <mxPoint x="362.9310344827586" y="-775" as="sourcePoint" />
          </mxGeometry>
        </mxCell>
        <mxCell id="z9zd0fYM2otDX-iHmuw7-107" value="&lt;div style=&quot;text-align: left;&quot;&gt;&lt;span style=&quot;font-size: 14px; background-color: transparent; color: light-dark(rgb(0, 0, 0), rgb(255, 255, 255));&quot;&gt;&lt;b&gt;conv&lt;/b&gt;&lt;/span&gt;&lt;/div&gt;&lt;div&gt;k=1,s=1&lt;/div&gt;" style="rounded=1;whiteSpace=wrap;html=1;" parent="1" vertex="1">
          <mxGeometry x="327" y="-799" width="71.75" height="31" as="geometry" />
        </mxCell>
        <mxCell id="z9zd0fYM2otDX-iHmuw7-116" value="" style="endArrow=classic;html=1;rounded=0;entryX=0.5;entryY=0;entryDx=0;entryDy=0;" parent="1" target="z9zd0fYM2otDX-iHmuw7-93" edge="1">
          <mxGeometry width="50" height="50" relative="1" as="geometry">
            <mxPoint x="360.5" y="-1286" as="sourcePoint" />
            <mxPoint x="776.5" y="-1098" as="targetPoint" />
          </mxGeometry>
        </mxCell>
        <mxCell id="z9zd0fYM2otDX-iHmuw7-117" value="&lt;br&gt;&lt;div style=&quot;forced-color-adjust: none; color: rgb(0, 0, 0); font-family: Helvetica; font-size: 12px; font-style: normal; font-variant-ligatures: normal; font-variant-caps: normal; font-weight: 400; letter-spacing: normal; orphans: 2; text-align: center; text-indent: 0px; text-transform: none; widows: 2; word-spacing: 0px; -webkit-text-stroke-width: 0px; white-space: normal; background-color: rgb(236, 236, 236); text-decoration-thickness: initial; text-decoration-style: initial; text-decoration-color: initial;&quot;&gt;&lt;span style=&quot;forced-color-adjust: none; font-size: 14px;&quot;&gt;&lt;b style=&quot;forced-color-adjust: none;&quot;&gt;c3k2&lt;/b&gt;&lt;/span&gt;&lt;/div&gt;&lt;div style=&quot;forced-color-adjust: none; color: rgb(0, 0, 0); font-family: Helvetica; font-size: 12px; font-style: normal; font-variant-ligatures: normal; font-variant-caps: normal; font-weight: 400; letter-spacing: normal; orphans: 2; text-align: center; text-indent: 0px; text-transform: none; widows: 2; word-spacing: 0px; -webkit-text-stroke-width: 0px; white-space: normal; background-color: rgb(236, 236, 236); text-decoration-thickness: initial; text-decoration-style: initial; text-decoration-color: initial;&quot;&gt;true&lt;/div&gt;&lt;div&gt;&lt;br&gt;&lt;/div&gt;" style="text;html=1;align=center;verticalAlign=middle;whiteSpace=wrap;rounded=0;" parent="1" vertex="1">
          <mxGeometry x="245.5" y="-1307.5" width="59" height="31" as="geometry" />
        </mxCell>
        <mxCell id="z9zd0fYM2otDX-iHmuw7-118" value="&lt;font style=&quot;font-size: 10px;&quot;&gt;就是V8的c2f 结构&lt;/font&gt;" style="shape=note;whiteSpace=wrap;html=1;backgroundOutline=1;fontColor=#000000;darkOpacity=0.05;fillColor=#FFF9B2;strokeColor=none;fillStyle=solid;direction=west;gradientDirection=north;gradientColor=#FFF2A1;shadow=1;size=20;pointerEvents=1;" parent="1" vertex="1">
          <mxGeometry x="414" y="-1307.5" width="87" height="15" as="geometry" />
        </mxCell>
        <mxCell id="z9zd0fYM2otDX-iHmuw7-128" style="edgeStyle=orthogonalEdgeStyle;rounded=0;orthogonalLoop=1;jettySize=auto;html=1;entryX=0.5;entryY=0;entryDx=0;entryDy=0;" parent="1" source="z9zd0fYM2otDX-iHmuw7-119" target="z9zd0fYM2otDX-iHmuw7-125" edge="1">
          <mxGeometry relative="1" as="geometry" />
        </mxCell>
        <mxCell id="z9zd0fYM2otDX-iHmuw7-119" value="&lt;div style=&quot;text-align: left;&quot;&gt;&lt;span style=&quot;font-size: 14px; background-color: transparent; color: light-dark(rgb(0, 0, 0), rgb(255, 255, 255));&quot;&gt;&lt;b&gt;conv&lt;/b&gt;&lt;/span&gt;&lt;/div&gt;&lt;div&gt;k=1,s=1&lt;/div&gt;" style="rounded=1;whiteSpace=wrap;html=1;" parent="1" vertex="1">
          <mxGeometry x="323.75" y="-1138" width="73" height="31" as="geometry" />
        </mxCell>
        <mxCell id="z9zd0fYM2otDX-iHmuw7-137" style="edgeStyle=orthogonalEdgeStyle;rounded=0;orthogonalLoop=1;jettySize=auto;html=1;entryX=1;entryY=0.5;entryDx=0;entryDy=0;" parent="1" source="z9zd0fYM2otDX-iHmuw7-123" target="z9zd0fYM2otDX-iHmuw7-135" edge="1">
          <mxGeometry relative="1" as="geometry">
            <Array as="points">
              <mxPoint x="469" y="-961" />
            </Array>
          </mxGeometry>
        </mxCell>
        <mxCell id="z9zd0fYM2otDX-iHmuw7-123" value="&lt;div style=&quot;text-align: left;&quot;&gt;&lt;span style=&quot;font-size: 14px; background-color: transparent; color: light-dark(rgb(0, 0, 0), rgb(255, 255, 255));&quot;&gt;&lt;b&gt;conv&lt;/b&gt;&lt;/span&gt;&lt;/div&gt;&lt;div&gt;k=1,s=1&lt;/div&gt;" style="rounded=1;whiteSpace=wrap;html=1;" parent="1" vertex="1">
          <mxGeometry x="434" y="-1107" width="73" height="31" as="geometry" />
        </mxCell>
        <mxCell id="z9zd0fYM2otDX-iHmuw7-129" style="edgeStyle=orthogonalEdgeStyle;rounded=0;orthogonalLoop=1;jettySize=auto;html=1;" parent="1" source="z9zd0fYM2otDX-iHmuw7-125" edge="1">
          <mxGeometry relative="1" as="geometry">
            <mxPoint x="359.625" y="-1030.5714285714287" as="targetPoint" />
          </mxGeometry>
        </mxCell>
        <mxCell id="z9zd0fYM2otDX-iHmuw7-125" value="&lt;b&gt;Bottleneck&lt;/b&gt;&lt;div style=&quot;text-align: left;&quot;&gt;true&lt;/div&gt;" style="rounded=1;whiteSpace=wrap;html=1;" parent="1" vertex="1">
          <mxGeometry x="325.75" y="-1084" width="67.75" height="32" as="geometry" />
        </mxCell>
        <mxCell id="z9zd0fYM2otDX-iHmuw7-136" value="" style="edgeStyle=orthogonalEdgeStyle;rounded=0;orthogonalLoop=1;jettySize=auto;html=1;" parent="1" source="z9zd0fYM2otDX-iHmuw7-126" target="z9zd0fYM2otDX-iHmuw7-135" edge="1">
          <mxGeometry relative="1" as="geometry" />
        </mxCell>
        <mxCell id="z9zd0fYM2otDX-iHmuw7-126" value="&lt;b&gt;Bottleneck&lt;/b&gt;&lt;div style=&quot;text-align: left;&quot;&gt;true&lt;/div&gt;" style="rounded=1;whiteSpace=wrap;html=1;" parent="1" vertex="1">
          <mxGeometry x="327.75" y="-1029" width="67.75" height="32" as="geometry" />
        </mxCell>
        <mxCell id="z9zd0fYM2otDX-iHmuw7-142" style="edgeStyle=orthogonalEdgeStyle;rounded=0;orthogonalLoop=1;jettySize=auto;html=1;" parent="1" source="z9zd0fYM2otDX-iHmuw7-131" target="z9zd0fYM2otDX-iHmuw7-31" edge="1">
          <mxGeometry relative="1" as="geometry" />
        </mxCell>
        <mxCell id="z9zd0fYM2otDX-iHmuw7-144" style="edgeStyle=orthogonalEdgeStyle;rounded=0;orthogonalLoop=1;jettySize=auto;html=1;entryX=0;entryY=0.5;entryDx=0;entryDy=0;" parent="1" source="z9zd0fYM2otDX-iHmuw7-131" target="z9zd0fYM2otDX-iHmuw7-132" edge="1">
          <mxGeometry relative="1" as="geometry">
            <Array as="points">
              <mxPoint x="-97" y="-1165" />
              <mxPoint x="-97" y="-1037" />
            </Array>
          </mxGeometry>
        </mxCell>
        <mxCell id="z9zd0fYM2otDX-iHmuw7-131" value="&lt;b&gt;split&lt;/b&gt;" style="ellipse;whiteSpace=wrap;html=1;" parent="1" vertex="1">
          <mxGeometry x="-55.75" y="-1180" width="51.5" height="29" as="geometry" />
        </mxCell>
        <mxCell id="z9zd0fYM2otDX-iHmuw7-133" value="&lt;b&gt;split&lt;/b&gt;" style="ellipse;whiteSpace=wrap;html=1;" parent="1" vertex="1">
          <mxGeometry x="334.5" y="-1188" width="51.5" height="29" as="geometry" />
        </mxCell>
        <mxCell id="z9zd0fYM2otDX-iHmuw7-139" value="" style="edgeStyle=orthogonalEdgeStyle;rounded=0;orthogonalLoop=1;jettySize=auto;html=1;" parent="1" source="z9zd0fYM2otDX-iHmuw7-135" target="z9zd0fYM2otDX-iHmuw7-138" edge="1">
          <mxGeometry relative="1" as="geometry" />
        </mxCell>
        <mxCell id="z9zd0fYM2otDX-iHmuw7-135" value="&lt;b&gt;concat&lt;/b&gt;" style="ellipse;whiteSpace=wrap;html=1;" parent="1" vertex="1">
          <mxGeometry x="335.88" y="-976" width="51.5" height="29" as="geometry" />
        </mxCell>
        <mxCell id="z9zd0fYM2otDX-iHmuw7-149" style="edgeStyle=orthogonalEdgeStyle;rounded=0;orthogonalLoop=1;jettySize=auto;html=1;entryX=0.5;entryY=0;entryDx=0;entryDy=0;" parent="1" source="z9zd0fYM2otDX-iHmuw7-138" target="z9zd0fYM2otDX-iHmuw7-145" edge="1">
          <mxGeometry relative="1" as="geometry" />
        </mxCell>
        <mxCell id="z9zd0fYM2otDX-iHmuw7-138" value="&lt;div style=&quot;text-align: left;&quot;&gt;&lt;span style=&quot;font-size: 14px; background-color: transparent; color: light-dark(rgb(0, 0, 0), rgb(255, 255, 255));&quot;&gt;&lt;b&gt;conv&lt;/b&gt;&lt;/span&gt;&lt;/div&gt;&lt;div&gt;k=1,s=1&lt;/div&gt;" style="rounded=1;whiteSpace=wrap;html=1;" parent="1" vertex="1">
          <mxGeometry x="325.75" y="-927" width="73" height="31" as="geometry" />
        </mxCell>
        <mxCell id="z9zd0fYM2otDX-iHmuw7-143" value="" style="edgeStyle=orthogonalEdgeStyle;rounded=0;orthogonalLoop=1;jettySize=auto;html=1;" parent="1" source="z9zd0fYM2otDX-iHmuw7-31" target="z9zd0fYM2otDX-iHmuw7-132" edge="1">
          <mxGeometry relative="1" as="geometry">
            <mxPoint x="-30" y="-1092" as="sourcePoint" />
            <mxPoint x="-32.77142857142849" y="-1038" as="targetPoint" />
          </mxGeometry>
        </mxCell>
        <mxCell id="z9zd0fYM2otDX-iHmuw7-132" value="&lt;b&gt;concat&lt;/b&gt;" style="ellipse;whiteSpace=wrap;html=1;" parent="1" vertex="1">
          <mxGeometry x="-56.129999999999995" y="-1052" width="51.5" height="29" as="geometry" />
        </mxCell>
        <mxCell id="z9zd0fYM2otDX-iHmuw7-145" value="&lt;b&gt;concat&lt;/b&gt;" style="ellipse;whiteSpace=wrap;html=1;" parent="1" vertex="1">
          <mxGeometry x="336.5" y="-852" width="51.5" height="29" as="geometry" />
        </mxCell>
        <mxCell id="z9zd0fYM2otDX-iHmuw7-148" value="&lt;b&gt;c3k&lt;/b&gt;" style="text;html=1;align=center;verticalAlign=middle;whiteSpace=wrap;rounded=0;" parent="1" vertex="1">
          <mxGeometry x="454" y="-1180" width="60" height="30" as="geometry" />
        </mxCell>
        <mxCell id="z9zd0fYM2otDX-iHmuw7-151" value="&lt;font style=&quot;font-size: 10px;&quot;&gt;这个地方是个数组，也就是说split完后可以并列走多个这样的结构再继续后面的拼接&lt;/font&gt;" style="shape=note;whiteSpace=wrap;html=1;backgroundOutline=1;fontColor=#000000;darkOpacity=0.05;fillColor=#FFF9B2;strokeColor=none;fillStyle=solid;direction=west;gradientDirection=north;gradientColor=#FFF2A1;shadow=1;size=20;pointerEvents=1;" parent="1" vertex="1">
          <mxGeometry x="99" y="-1173" width="116" height="79" as="geometry" />
        </mxCell>
        <mxCell id="z9zd0fYM2otDX-iHmuw7-153" style="edgeStyle=orthogonalEdgeStyle;rounded=0;orthogonalLoop=1;jettySize=auto;html=1;" parent="1" source="z9zd0fYM2otDX-iHmuw7-152" target="z9zd0fYM2otDX-iHmuw7-151" edge="1">
          <mxGeometry relative="1" as="geometry" />
        </mxCell>
        <mxCell id="z9zd0fYM2otDX-iHmuw7-152" value="" style="rounded=1;whiteSpace=wrap;html=1;fillColor=none;dashed=1;" parent="1" vertex="1">
          <mxGeometry x="-90" y="-1138" width="128" height="62" as="geometry" />
        </mxCell>
        <mxCell id="z9zd0fYM2otDX-iHmuw7-155" value="..." style="text;html=1;align=center;verticalAlign=middle;whiteSpace=wrap;rounded=0;" parent="1" vertex="1">
          <mxGeometry x="-9.999999999999998" y="-1121" width="60" height="29" as="geometry" />
        </mxCell>
        <mxCell id="z9zd0fYM2otDX-iHmuw7-156" value="n" style="text;html=1;align=center;verticalAlign=middle;whiteSpace=wrap;rounded=0;" parent="1" vertex="1">
          <mxGeometry x="-10" y="-1124" width="60" height="30" as="geometry" />
        </mxCell>
        <mxCell id="z9zd0fYM2otDX-iHmuw7-166" style="edgeStyle=orthogonalEdgeStyle;rounded=0;orthogonalLoop=1;jettySize=auto;html=1;" parent="1" source="z9zd0fYM2otDX-iHmuw7-160" target="z9zd0fYM2otDX-iHmuw7-162" edge="1">
          <mxGeometry relative="1" as="geometry" />
        </mxCell>
        <mxCell id="z9zd0fYM2otDX-iHmuw7-160" value="&lt;div style=&quot;text-align: left;&quot;&gt;&lt;span style=&quot;font-size: 14px; background-color: transparent; color: light-dark(rgb(0, 0, 0), rgb(255, 255, 255));&quot;&gt;&lt;b&gt;conv&lt;/b&gt;&lt;/span&gt;&lt;/div&gt;&lt;div&gt;k=1,s=1,p=1&lt;/div&gt;" style="rounded=1;whiteSpace=wrap;html=1;" parent="1" vertex="1">
          <mxGeometry x="-51" y="-858" width="89" height="33" as="geometry" />
        </mxCell>
        <mxCell id="z9zd0fYM2otDX-iHmuw7-162" value="&lt;span style=&quot;font-size: 14px;&quot;&gt;&lt;b&gt;MaxPool2d&lt;/b&gt;&lt;/span&gt;" style="rounded=1;whiteSpace=wrap;html=1;" parent="1" vertex="1">
          <mxGeometry x="-47.5" y="-788" width="82" height="37" as="geometry" />
        </mxCell>
        <mxCell id="RdfNYfSdjUfIYxGeZhfG-17" style="edgeStyle=orthogonalEdgeStyle;rounded=0;orthogonalLoop=1;jettySize=auto;html=1;" edge="1" parent="1" source="z9zd0fYM2otDX-iHmuw7-163">
          <mxGeometry relative="1" as="geometry">
            <mxPoint x="-6.5" y="-585.1379310344828" as="targetPoint" />
          </mxGeometry>
        </mxCell>
        <mxCell id="z9zd0fYM2otDX-iHmuw7-163" value="&lt;span style=&quot;font-size: 14px;&quot;&gt;&lt;b&gt;MaxPool2d&lt;/b&gt;&lt;/span&gt;" style="rounded=1;whiteSpace=wrap;html=1;" parent="1" vertex="1">
          <mxGeometry x="-47.5" y="-661" width="82" height="37" as="geometry" />
        </mxCell>
        <mxCell id="RdfNYfSdjUfIYxGeZhfG-18" style="edgeStyle=orthogonalEdgeStyle;rounded=0;orthogonalLoop=1;jettySize=auto;html=1;" edge="1" parent="1" source="z9zd0fYM2otDX-iHmuw7-164" target="z9zd0fYM2otDX-iHmuw7-169">
          <mxGeometry relative="1" as="geometry" />
        </mxCell>
        <mxCell id="z9zd0fYM2otDX-iHmuw7-164" value="&lt;b&gt;concat&lt;/b&gt;" style="ellipse;whiteSpace=wrap;html=1;" parent="1" vertex="1">
          <mxGeometry x="-32.25" y="-588" width="51.5" height="29" as="geometry" />
        </mxCell>
        <mxCell id="RdfNYfSdjUfIYxGeZhfG-24" style="edgeStyle=orthogonalEdgeStyle;rounded=0;orthogonalLoop=1;jettySize=auto;html=1;" edge="1" parent="1" source="z9zd0fYM2otDX-iHmuw7-169">
          <mxGeometry relative="1" as="geometry">
            <mxPoint x="-6.5" y="-469.83333333333303" as="targetPoint" />
          </mxGeometry>
        </mxCell>
        <mxCell id="z9zd0fYM2otDX-iHmuw7-169" value="&lt;div style=&quot;text-align: left;&quot;&gt;&lt;span style=&quot;font-size: 14px; background-color: transparent; color: light-dark(rgb(0, 0, 0), rgb(255, 255, 255));&quot;&gt;&lt;b&gt;conv&lt;/b&gt;&lt;/span&gt;&lt;/div&gt;&lt;div&gt;k=1,s=1,p=1&lt;/div&gt;" style="rounded=1;whiteSpace=wrap;html=1;" parent="1" vertex="1">
          <mxGeometry x="-51" y="-532" width="89" height="33" as="geometry" />
        </mxCell>
        <mxCell id="z9zd0fYM2otDX-iHmuw7-176" style="edgeStyle=orthogonalEdgeStyle;rounded=0;orthogonalLoop=1;jettySize=auto;html=1;" parent="1" edge="1">
          <mxGeometry relative="1" as="geometry">
            <mxPoint x="-6.749999999999545" y="-858.0042857142853" as="targetPoint" />
            <mxPoint x="-6.25" y="-891.29" as="sourcePoint" />
          </mxGeometry>
        </mxCell>
        <mxCell id="z9zd0fYM2otDX-iHmuw7-179" value="&lt;span style=&quot;font-size: 14px;&quot;&gt;&lt;b&gt;SPPF&lt;/b&gt;&lt;/span&gt;" style="text;html=1;align=center;verticalAlign=middle;whiteSpace=wrap;rounded=0;" parent="1" vertex="1">
          <mxGeometry x="-155.5" y="-888.5" width="74" height="36.5" as="geometry" />
        </mxCell>
        <mxCell id="z9zd0fYM2otDX-iHmuw7-180" value="" style="rounded=0;whiteSpace=wrap;html=1;fillColor=#dae8fc;strokeColor=#6c8ebf;" parent="1" vertex="1">
          <mxGeometry x="-428" y="-956" width="199" height="258" as="geometry" />
        </mxCell>
        <mxCell id="z9zd0fYM2otDX-iHmuw7-181" value="" style="edgeStyle=orthogonalEdgeStyle;rounded=0;orthogonalLoop=1;jettySize=auto;html=1;" parent="1" source="z9zd0fYM2otDX-iHmuw7-182" target="z9zd0fYM2otDX-iHmuw7-184" edge="1">
          <mxGeometry relative="1" as="geometry" />
        </mxCell>
        <mxCell id="z9zd0fYM2otDX-iHmuw7-182" value="&lt;div style=&quot;text-align: left;&quot;&gt;&lt;span style=&quot;font-size: 14px;&quot;&gt;&lt;b&gt;Conv2d&lt;/b&gt;&lt;/span&gt;&lt;/div&gt;" style="rounded=1;whiteSpace=wrap;html=1;" parent="1" vertex="1">
          <mxGeometry x="-369" y="-885" width="89" height="33" as="geometry" />
        </mxCell>
        <mxCell id="z9zd0fYM2otDX-iHmuw7-183" value="" style="edgeStyle=orthogonalEdgeStyle;rounded=0;orthogonalLoop=1;jettySize=auto;html=1;" parent="1" source="z9zd0fYM2otDX-iHmuw7-184" edge="1">
          <mxGeometry relative="1" as="geometry">
            <mxPoint x="-324.5" y="-762.5" as="targetPoint" />
          </mxGeometry>
        </mxCell>
        <mxCell id="z9zd0fYM2otDX-iHmuw7-184" value="&lt;div style=&quot;text-align: left;&quot;&gt;&lt;span style=&quot;font-size: 14px;&quot;&gt;&lt;b&gt;BatchNorm2d&lt;/b&gt;&lt;/span&gt;&lt;/div&gt;" style="rounded=1;whiteSpace=wrap;html=1;" parent="1" vertex="1">
          <mxGeometry x="-373" y="-823.5" width="97" height="31" as="geometry" />
        </mxCell>
        <mxCell id="z9zd0fYM2otDX-iHmuw7-185" value="" style="endArrow=classic;html=1;rounded=0;entryX=0.5;entryY=0;entryDx=0;entryDy=0;" parent="1" target="z9zd0fYM2otDX-iHmuw7-182" edge="1">
          <mxGeometry width="50" height="50" relative="1" as="geometry">
            <mxPoint x="-324" y="-924" as="sourcePoint" />
            <mxPoint x="-104" y="-783" as="targetPoint" />
          </mxGeometry>
        </mxCell>
        <mxCell id="z9zd0fYM2otDX-iHmuw7-189" value="h×w×c" style="text;html=1;align=center;verticalAlign=middle;whiteSpace=wrap;rounded=0;" parent="1" vertex="1">
          <mxGeometry x="-329.75" y="-856.5" width="60" height="30" as="geometry" />
        </mxCell>
        <mxCell id="z9zd0fYM2otDX-iHmuw7-191" value="h×w×c" style="text;html=1;align=center;verticalAlign=middle;whiteSpace=wrap;rounded=0;" parent="1" vertex="1">
          <mxGeometry x="-421" y="-931" width="60" height="30" as="geometry" />
        </mxCell>
        <mxCell id="z9zd0fYM2otDX-iHmuw7-192" value="&lt;span style=&quot;font-size: 14px;&quot;&gt;&lt;b&gt;conv&lt;/b&gt;&lt;/span&gt;" style="text;html=1;align=center;verticalAlign=middle;whiteSpace=wrap;rounded=0;" parent="1" vertex="1">
          <mxGeometry x="-428" y="-950" width="74" height="36.5" as="geometry" />
        </mxCell>
        <mxCell id="z9zd0fYM2otDX-iHmuw7-194" value="" style="endArrow=classic;html=1;rounded=0;exitX=0.5;exitY=1;exitDx=0;exitDy=0;" parent="1" edge="1">
          <mxGeometry width="50" height="50" relative="1" as="geometry">
            <mxPoint x="-324.5" y="-732.5" as="sourcePoint" />
            <mxPoint x="-324" y="-708" as="targetPoint" />
          </mxGeometry>
        </mxCell>
        <mxCell id="z9zd0fYM2otDX-iHmuw7-195" value="&lt;div style=&quot;text-align: left;&quot;&gt;&lt;span style=&quot;font-size: 14px;&quot;&gt;&lt;b&gt;SiLU&lt;/b&gt;&lt;/span&gt;&lt;/div&gt;" style="rounded=1;whiteSpace=wrap;html=1;" parent="1" vertex="1">
          <mxGeometry x="-368" y="-762.5" width="89" height="33" as="geometry" />
        </mxCell>
        <mxCell id="z9zd0fYM2otDX-iHmuw7-198" value="&lt;span style=&quot;font-size: 14px;&quot;&gt;&lt;b&gt;PSABlock&lt;/b&gt;&lt;/span&gt;" style="text;html=1;align=center;verticalAlign=middle;whiteSpace=wrap;rounded=0;" parent="1" vertex="1">
          <mxGeometry x="614" y="-984.5" width="74" height="36.5" as="geometry" />
        </mxCell>
        <mxCell id="z9zd0fYM2otDX-iHmuw7-208" style="edgeStyle=orthogonalEdgeStyle;rounded=0;orthogonalLoop=1;jettySize=auto;html=1;entryX=0.5;entryY=0;entryDx=0;entryDy=0;" parent="1" source="z9zd0fYM2otDX-iHmuw7-199" target="z9zd0fYM2otDX-iHmuw7-205" edge="1">
          <mxGeometry relative="1" as="geometry" />
        </mxCell>
        <mxCell id="z9zd0fYM2otDX-iHmuw7-199" value="&lt;div style=&quot;text-align: left;&quot;&gt;&lt;span style=&quot;font-size: 14px;&quot;&gt;&lt;b&gt;Attention&lt;/b&gt;&lt;/span&gt;&lt;/div&gt;" style="rounded=1;whiteSpace=wrap;html=1;" parent="1" vertex="1">
          <mxGeometry x="697" y="-928.5" width="73" height="31" as="geometry" />
        </mxCell>
        <mxCell id="z9zd0fYM2otDX-iHmuw7-200" value="&lt;div style=&quot;text-align: left;&quot;&gt;&lt;span style=&quot;font-size: 14px;&quot;&gt;&lt;b&gt;Conv&lt;/b&gt;&lt;/span&gt;&lt;/div&gt;" style="rounded=1;whiteSpace=wrap;html=1;" parent="1" vertex="1">
          <mxGeometry x="697" y="-823" width="73" height="31" as="geometry" />
        </mxCell>
        <mxCell id="z9zd0fYM2otDX-iHmuw7-201" value="&lt;div style=&quot;text-align: left;&quot;&gt;&lt;span style=&quot;font-size: 14px;&quot;&gt;&lt;b&gt;Conv&lt;/b&gt;&lt;/span&gt;&lt;/div&gt;" style="rounded=1;whiteSpace=wrap;html=1;" parent="1" vertex="1">
          <mxGeometry x="698" y="-773" width="73" height="31" as="geometry" />
        </mxCell>
        <mxCell id="z9zd0fYM2otDX-iHmuw7-203" value="&lt;b&gt;ffn&lt;/b&gt;" style="text;html=1;align=center;verticalAlign=middle;whiteSpace=wrap;rounded=0;" parent="1" vertex="1">
          <mxGeometry x="759" y="-840" width="60" height="30" as="geometry" />
        </mxCell>
        <mxCell id="z9zd0fYM2otDX-iHmuw7-210" style="edgeStyle=orthogonalEdgeStyle;rounded=0;orthogonalLoop=1;jettySize=auto;html=1;" parent="1" source="z9zd0fYM2otDX-iHmuw7-205" target="z9zd0fYM2otDX-iHmuw7-200" edge="1">
          <mxGeometry relative="1" as="geometry" />
        </mxCell>
        <mxCell id="z9zd0fYM2otDX-iHmuw7-205" value="" style="shape=orEllipse;perimeter=ellipsePerimeter;whiteSpace=wrap;html=1;backgroundOutline=1;" parent="1" vertex="1">
          <mxGeometry x="718.5" y="-879" width="30" height="30" as="geometry" />
        </mxCell>
        <mxCell id="z9zd0fYM2otDX-iHmuw7-206" value="" style="endArrow=classic;html=1;rounded=0;entryX=0.5;entryY=0;entryDx=0;entryDy=0;" parent="1" edge="1">
          <mxGeometry width="50" height="50" relative="1" as="geometry">
            <mxPoint x="734.58" y="-964.5" as="sourcePoint" />
            <mxPoint x="734.08" y="-927.5" as="targetPoint" />
          </mxGeometry>
        </mxCell>
        <mxCell id="z9zd0fYM2otDX-iHmuw7-209" value="" style="endArrow=classic;html=1;rounded=0;edgeStyle=orthogonalEdgeStyle;" parent="1" edge="1">
          <mxGeometry width="50" height="50" relative="1" as="geometry">
            <mxPoint x="734" y="-947.5" as="sourcePoint" />
            <mxPoint x="716" y="-865.5" as="targetPoint" />
            <Array as="points">
              <mxPoint x="734" y="-946.5" />
              <mxPoint x="684" y="-946.5" />
              <mxPoint x="684" y="-865.5" />
            </Array>
          </mxGeometry>
        </mxCell>
        <mxCell id="z9zd0fYM2otDX-iHmuw7-216" style="edgeStyle=orthogonalEdgeStyle;rounded=0;orthogonalLoop=1;jettySize=auto;html=1;" parent="1" source="z9zd0fYM2otDX-iHmuw7-211" edge="1">
          <mxGeometry relative="1" as="geometry">
            <mxPoint x="734.5" y="-661.5" as="targetPoint" />
          </mxGeometry>
        </mxCell>
        <mxCell id="z9zd0fYM2otDX-iHmuw7-211" value="" style="shape=orEllipse;perimeter=ellipsePerimeter;whiteSpace=wrap;html=1;backgroundOutline=1;" parent="1" vertex="1">
          <mxGeometry x="719.5" y="-711.5" width="30" height="30" as="geometry" />
        </mxCell>
        <mxCell id="z9zd0fYM2otDX-iHmuw7-213" style="edgeStyle=orthogonalEdgeStyle;rounded=0;orthogonalLoop=1;jettySize=auto;html=1;entryX=0.493;entryY=0.057;entryDx=0;entryDy=0;entryPerimeter=0;" parent="1" source="z9zd0fYM2otDX-iHmuw7-200" target="z9zd0fYM2otDX-iHmuw7-201" edge="1">
          <mxGeometry relative="1" as="geometry" />
        </mxCell>
        <mxCell id="z9zd0fYM2otDX-iHmuw7-214" style="edgeStyle=orthogonalEdgeStyle;rounded=0;orthogonalLoop=1;jettySize=auto;html=1;entryX=0.491;entryY=0.1;entryDx=0;entryDy=0;entryPerimeter=0;" parent="1" source="z9zd0fYM2otDX-iHmuw7-201" target="z9zd0fYM2otDX-iHmuw7-211" edge="1">
          <mxGeometry relative="1" as="geometry" />
        </mxCell>
        <mxCell id="z9zd0fYM2otDX-iHmuw7-215" value="" style="endArrow=classic;html=1;rounded=0;edgeStyle=orthogonalEdgeStyle;entryX=0;entryY=0.5;entryDx=0;entryDy=0;" parent="1" target="z9zd0fYM2otDX-iHmuw7-211" edge="1">
          <mxGeometry width="50" height="50" relative="1" as="geometry">
            <mxPoint x="733" y="-844.5" as="sourcePoint" />
            <mxPoint x="726" y="-855.5" as="targetPoint" />
            <Array as="points">
              <mxPoint x="733" y="-840.5" />
              <mxPoint x="663" y="-840.5" />
              <mxPoint x="663" y="-696.5" />
            </Array>
          </mxGeometry>
        </mxCell>
        <mxCell id="z9zd0fYM2otDX-iHmuw7-218" value="&lt;span style=&quot;font-size: 14px;&quot;&gt;&lt;b&gt;C2PSA&lt;/b&gt;&lt;/span&gt;" style="text;html=1;align=center;verticalAlign=middle;whiteSpace=wrap;rounded=0;" parent="1" vertex="1">
          <mxGeometry x="608" y="-1298" width="74" height="36.5" as="geometry" />
        </mxCell>
        <mxCell id="z9zd0fYM2otDX-iHmuw7-227" style="edgeStyle=orthogonalEdgeStyle;rounded=0;orthogonalLoop=1;jettySize=auto;html=1;entryX=0.5;entryY=0;entryDx=0;entryDy=0;" parent="1" source="z9zd0fYM2otDX-iHmuw7-219" target="z9zd0fYM2otDX-iHmuw7-226" edge="1">
          <mxGeometry relative="1" as="geometry" />
        </mxCell>
        <mxCell id="z9zd0fYM2otDX-iHmuw7-219" value="&lt;div style=&quot;text-align: left;&quot;&gt;&lt;b style=&quot;font-size: 14px; text-align: center;&quot;&gt;PSABlock&lt;/b&gt;&lt;/div&gt;" style="rounded=1;whiteSpace=wrap;html=1;" parent="1" vertex="1">
          <mxGeometry x="694.5" y="-1157" width="79.5" height="33" as="geometry" />
        </mxCell>
        <mxCell id="z9zd0fYM2otDX-iHmuw7-223" style="edgeStyle=orthogonalEdgeStyle;rounded=0;orthogonalLoop=1;jettySize=auto;html=1;entryX=0.5;entryY=0;entryDx=0;entryDy=0;" parent="1" source="z9zd0fYM2otDX-iHmuw7-221" target="z9zd0fYM2otDX-iHmuw7-222" edge="1">
          <mxGeometry relative="1" as="geometry" />
        </mxCell>
        <mxCell id="z9zd0fYM2otDX-iHmuw7-221" value="&lt;div style=&quot;text-align: left;&quot;&gt;&lt;span style=&quot;font-size: 14px; background-color: transparent; color: light-dark(rgb(0, 0, 0), rgb(255, 255, 255));&quot;&gt;&lt;b&gt;conv&lt;/b&gt;&lt;/span&gt;&lt;/div&gt;&lt;div&gt;k=1,s=1&lt;/div&gt;" style="rounded=1;whiteSpace=wrap;html=1;" parent="1" vertex="1">
          <mxGeometry x="693.25" y="-1267" width="73" height="31" as="geometry" />
        </mxCell>
        <mxCell id="z9zd0fYM2otDX-iHmuw7-222" value="&lt;b&gt;split&lt;/b&gt;" style="ellipse;whiteSpace=wrap;html=1;" parent="1" vertex="1">
          <mxGeometry x="705" y="-1211" width="51.5" height="29" as="geometry" />
        </mxCell>
        <mxCell id="z9zd0fYM2otDX-iHmuw7-224" style="edgeStyle=orthogonalEdgeStyle;rounded=0;orthogonalLoop=1;jettySize=auto;html=1;entryX=0.5;entryY=0;entryDx=0;entryDy=0;" parent="1" edge="1">
          <mxGeometry relative="1" as="geometry">
            <mxPoint x="727" y="-1292" as="sourcePoint" />
            <mxPoint x="728" y="-1267" as="targetPoint" />
          </mxGeometry>
        </mxCell>
        <mxCell id="z9zd0fYM2otDX-iHmuw7-225" style="edgeStyle=orthogonalEdgeStyle;rounded=0;orthogonalLoop=1;jettySize=auto;html=1;entryX=0.459;entryY=0.004;entryDx=0;entryDy=0;entryPerimeter=0;" parent="1" source="z9zd0fYM2otDX-iHmuw7-222" target="z9zd0fYM2otDX-iHmuw7-219" edge="1">
          <mxGeometry relative="1" as="geometry" />
        </mxCell>
        <mxCell id="z9zd0fYM2otDX-iHmuw7-229" style="edgeStyle=orthogonalEdgeStyle;rounded=0;orthogonalLoop=1;jettySize=auto;html=1;" parent="1" source="z9zd0fYM2otDX-iHmuw7-226" edge="1">
          <mxGeometry relative="1" as="geometry">
            <mxPoint x="734.25" y="-1040.2857142857142" as="targetPoint" />
          </mxGeometry>
        </mxCell>
        <mxCell id="z9zd0fYM2otDX-iHmuw7-226" value="&lt;b&gt;concat&lt;/b&gt;" style="ellipse;whiteSpace=wrap;html=1;" parent="1" vertex="1">
          <mxGeometry x="708.5" y="-1094" width="51.5" height="29" as="geometry" />
        </mxCell>
        <mxCell id="z9zd0fYM2otDX-iHmuw7-228" value="" style="endArrow=classic;html=1;rounded=0;edgeStyle=orthogonalEdgeStyle;entryX=0;entryY=0.5;entryDx=0;entryDy=0;" parent="1" target="z9zd0fYM2otDX-iHmuw7-226" edge="1">
          <mxGeometry width="50" height="50" relative="1" as="geometry">
            <mxPoint x="732" y="-1174" as="sourcePoint" />
            <mxPoint x="714" y="-1092" as="targetPoint" />
            <Array as="points">
              <mxPoint x="732" y="-1173" />
              <mxPoint x="673" y="-1173" />
              <mxPoint x="673" y="-1079" />
              <mxPoint x="708" y="-1079" />
            </Array>
          </mxGeometry>
        </mxCell>
        <mxCell id="RdfNYfSdjUfIYxGeZhfG-15" value="" style="edgeStyle=orthogonalEdgeStyle;rounded=0;orthogonalLoop=1;jettySize=auto;html=1;entryX=0.5;entryY=0;entryDx=0;entryDy=0;" edge="1" parent="1" source="z9zd0fYM2otDX-iHmuw7-162" target="z9zd0fYM2otDX-iHmuw7-161">
          <mxGeometry relative="1" as="geometry">
            <mxPoint x="-6" y="-751" as="sourcePoint" />
            <mxPoint x="-6" y="-588" as="targetPoint" />
          </mxGeometry>
        </mxCell>
        <mxCell id="RdfNYfSdjUfIYxGeZhfG-16" style="edgeStyle=orthogonalEdgeStyle;rounded=0;orthogonalLoop=1;jettySize=auto;html=1;entryX=0.5;entryY=0;entryDx=0;entryDy=0;" edge="1" parent="1" source="z9zd0fYM2otDX-iHmuw7-161" target="z9zd0fYM2otDX-iHmuw7-163">
          <mxGeometry relative="1" as="geometry" />
        </mxCell>
        <mxCell id="z9zd0fYM2otDX-iHmuw7-161" value="&lt;span style=&quot;font-size: 14px;&quot;&gt;&lt;b&gt;MaxPool2d&lt;/b&gt;&lt;/span&gt;" style="rounded=1;whiteSpace=wrap;html=1;" parent="1" vertex="1">
          <mxGeometry x="-47.5" y="-724" width="82" height="37" as="geometry" />
        </mxCell>
        <mxCell id="RdfNYfSdjUfIYxGeZhfG-26" style="edgeStyle=orthogonalEdgeStyle;rounded=0;orthogonalLoop=1;jettySize=auto;html=1;entryX=0;entryY=0.5;entryDx=0;entryDy=0;" edge="1" parent="1" target="z9zd0fYM2otDX-iHmuw7-164">
          <mxGeometry relative="1" as="geometry">
            <Array as="points">
              <mxPoint x="-48" y="-804" />
              <mxPoint x="-88" y="-804" />
              <mxPoint x="-88" y="-573" />
              <mxPoint x="-32" y="-573" />
            </Array>
            <mxPoint x="-6" y="-804" as="sourcePoint" />
            <mxPoint x="-47.5" y="-570" as="targetPoint" />
          </mxGeometry>
        </mxCell>
        <mxCell id="RdfNYfSdjUfIYxGeZhfG-27" style="edgeStyle=orthogonalEdgeStyle;rounded=0;orthogonalLoop=1;jettySize=auto;html=1;entryX=0;entryY=0.5;entryDx=0;entryDy=0;" edge="1" parent="1">
          <mxGeometry relative="1" as="geometry">
            <Array as="points">
              <mxPoint x="-7" y="-741" />
              <mxPoint x="-88" y="-741" />
              <mxPoint x="-88" y="-574" />
            </Array>
            <mxPoint x="-7" y="-742" as="sourcePoint" />
            <mxPoint x="-32.53" y="-574" as="targetPoint" />
          </mxGeometry>
        </mxCell>
        <mxCell id="RdfNYfSdjUfIYxGeZhfG-28" style="edgeStyle=orthogonalEdgeStyle;rounded=0;orthogonalLoop=1;jettySize=auto;html=1;entryX=0;entryY=0.5;entryDx=0;entryDy=0;" edge="1" parent="1">
          <mxGeometry relative="1" as="geometry">
            <Array as="points">
              <mxPoint x="-6" y="-677" />
              <mxPoint x="-88" y="-677" />
              <mxPoint x="-88" y="-574" />
            </Array>
            <mxPoint x="-6" y="-677" as="sourcePoint" />
            <mxPoint x="-32.06" y="-574" as="targetPoint" />
          </mxGeometry>
        </mxCell>
        <mxCell id="RdfNYfSdjUfIYxGeZhfG-91" style="edgeStyle=orthogonalEdgeStyle;rounded=0;orthogonalLoop=1;jettySize=auto;html=1;" edge="1" parent="1" source="RdfNYfSdjUfIYxGeZhfG-87" target="RdfNYfSdjUfIYxGeZhfG-88">
          <mxGeometry relative="1" as="geometry" />
        </mxCell>
        <mxCell id="RdfNYfSdjUfIYxGeZhfG-87" value="&lt;div style=&quot;text-align: left;&quot;&gt;&lt;span style=&quot;font-size: 14px; background-color: transparent; color: light-dark(rgb(0, 0, 0), rgb(255, 255, 255));&quot;&gt;&lt;b&gt;conv&lt;/b&gt;&lt;/span&gt;&lt;/div&gt;&lt;div&gt;k=3,s=1,p=1&lt;/div&gt;" style="rounded=1;whiteSpace=wrap;html=1;" vertex="1" parent="1">
          <mxGeometry x="1001" y="-1160.5" width="89" height="33" as="geometry" />
        </mxCell>
        <mxCell id="RdfNYfSdjUfIYxGeZhfG-92" style="edgeStyle=orthogonalEdgeStyle;rounded=0;orthogonalLoop=1;jettySize=auto;html=1;entryX=0.5;entryY=0;entryDx=0;entryDy=0;" edge="1" parent="1" source="RdfNYfSdjUfIYxGeZhfG-88" target="RdfNYfSdjUfIYxGeZhfG-89">
          <mxGeometry relative="1" as="geometry" />
        </mxCell>
        <mxCell id="RdfNYfSdjUfIYxGeZhfG-88" value="&lt;div style=&quot;text-align: left;&quot;&gt;&lt;span style=&quot;font-size: 14px; background-color: transparent; color: light-dark(rgb(0, 0, 0), rgb(255, 255, 255));&quot;&gt;&lt;b&gt;conv&lt;/b&gt;&lt;/span&gt;&lt;/div&gt;&lt;div&gt;k=3,s=1,p=1&lt;/div&gt;" style="rounded=1;whiteSpace=wrap;html=1;" vertex="1" parent="1">
          <mxGeometry x="1001" y="-1094.5" width="89" height="33" as="geometry" />
        </mxCell>
        <mxCell id="RdfNYfSdjUfIYxGeZhfG-110" style="edgeStyle=orthogonalEdgeStyle;rounded=0;orthogonalLoop=1;jettySize=auto;html=1;entryX=0;entryY=0.5;entryDx=0;entryDy=0;exitX=0.5;exitY=1;exitDx=0;exitDy=0;" edge="1" parent="1" source="RdfNYfSdjUfIYxGeZhfG-89" target="RdfNYfSdjUfIYxGeZhfG-108">
          <mxGeometry relative="1" as="geometry" />
        </mxCell>
        <mxCell id="RdfNYfSdjUfIYxGeZhfG-89" value="&lt;div style=&quot;text-align: left;&quot;&gt;&lt;span style=&quot;font-size: 14px;&quot;&gt;&lt;b&gt;Conv2d&lt;/b&gt;&lt;/span&gt;&lt;/div&gt;" style="rounded=1;whiteSpace=wrap;html=1;" vertex="1" parent="1">
          <mxGeometry x="1001" y="-1028.5" width="89" height="33" as="geometry" />
        </mxCell>
        <mxCell id="RdfNYfSdjUfIYxGeZhfG-93" style="edgeStyle=orthogonalEdgeStyle;rounded=0;orthogonalLoop=1;jettySize=auto;html=1;" edge="1" parent="1">
          <mxGeometry relative="1" as="geometry">
            <mxPoint x="1146" y="-1211.5" as="sourcePoint" />
            <mxPoint x="1043.33" y="-1160.5" as="targetPoint" />
          </mxGeometry>
        </mxCell>
        <mxCell id="RdfNYfSdjUfIYxGeZhfG-94" value="&lt;font style=&quot;font-size: 14px;&quot;&gt;×3&lt;/font&gt;" style="text;html=1;align=center;verticalAlign=middle;whiteSpace=wrap;rounded=0;" vertex="1" parent="1">
          <mxGeometry x="907" y="-1091.5" width="60" height="30" as="geometry" />
        </mxCell>
        <mxCell id="RdfNYfSdjUfIYxGeZhfG-100" style="edgeStyle=orthogonalEdgeStyle;rounded=0;orthogonalLoop=1;jettySize=auto;html=1;entryX=0.5;entryY=0;entryDx=0;entryDy=0;" edge="1" parent="1" source="RdfNYfSdjUfIYxGeZhfG-95" target="RdfNYfSdjUfIYxGeZhfG-96">
          <mxGeometry relative="1" as="geometry" />
        </mxCell>
        <mxCell id="RdfNYfSdjUfIYxGeZhfG-95" value="&lt;div style=&quot;text-align: left;&quot;&gt;&lt;span style=&quot;font-size: 14px; background-color: transparent; color: light-dark(rgb(0, 0, 0), rgb(255, 255, 255));&quot;&gt;&lt;b&gt;DWConv&lt;/b&gt;&lt;/span&gt;&lt;/div&gt;&lt;div&gt;k=3,s=1,p=1&lt;/div&gt;" style="rounded=1;whiteSpace=wrap;html=1;" vertex="1" parent="1">
          <mxGeometry x="1189" y="-1158.5" width="89" height="33" as="geometry" />
        </mxCell>
        <mxCell id="RdfNYfSdjUfIYxGeZhfG-101" style="edgeStyle=orthogonalEdgeStyle;rounded=0;orthogonalLoop=1;jettySize=auto;html=1;entryX=0.5;entryY=0;entryDx=0;entryDy=0;" edge="1" parent="1" source="RdfNYfSdjUfIYxGeZhfG-96" target="RdfNYfSdjUfIYxGeZhfG-97">
          <mxGeometry relative="1" as="geometry" />
        </mxCell>
        <mxCell id="RdfNYfSdjUfIYxGeZhfG-96" value="&lt;div style=&quot;text-align: left;&quot;&gt;&lt;span style=&quot;font-size: 14px; background-color: transparent; color: light-dark(rgb(0, 0, 0), rgb(255, 255, 255));&quot;&gt;&lt;b&gt;conv&lt;/b&gt;&lt;/span&gt;&lt;/div&gt;&lt;div&gt;k=1,s=1,p=1&lt;/div&gt;" style="rounded=1;whiteSpace=wrap;html=1;" vertex="1" parent="1">
          <mxGeometry x="1189" y="-1100.5" width="89" height="33" as="geometry" />
        </mxCell>
        <mxCell id="RdfNYfSdjUfIYxGeZhfG-102" style="edgeStyle=orthogonalEdgeStyle;rounded=0;orthogonalLoop=1;jettySize=auto;html=1;" edge="1" parent="1" source="RdfNYfSdjUfIYxGeZhfG-97" target="RdfNYfSdjUfIYxGeZhfG-98">
          <mxGeometry relative="1" as="geometry" />
        </mxCell>
        <mxCell id="RdfNYfSdjUfIYxGeZhfG-97" value="&lt;div style=&quot;text-align: left;&quot;&gt;&lt;span style=&quot;font-size: 14px; background-color: transparent; color: light-dark(rgb(0, 0, 0), rgb(255, 255, 255));&quot;&gt;&lt;b&gt;DWConv&lt;/b&gt;&lt;/span&gt;&lt;/div&gt;&lt;div&gt;k=3,s=1,p=1&lt;/div&gt;" style="rounded=1;whiteSpace=wrap;html=1;" vertex="1" parent="1">
          <mxGeometry x="1189" y="-1031.5" width="89" height="33" as="geometry" />
        </mxCell>
        <mxCell id="RdfNYfSdjUfIYxGeZhfG-103" style="edgeStyle=orthogonalEdgeStyle;rounded=0;orthogonalLoop=1;jettySize=auto;html=1;entryX=0.5;entryY=0;entryDx=0;entryDy=0;" edge="1" parent="1" source="RdfNYfSdjUfIYxGeZhfG-98" target="RdfNYfSdjUfIYxGeZhfG-99">
          <mxGeometry relative="1" as="geometry" />
        </mxCell>
        <mxCell id="RdfNYfSdjUfIYxGeZhfG-98" value="&lt;div style=&quot;text-align: left;&quot;&gt;&lt;span style=&quot;font-size: 14px; background-color: transparent; color: light-dark(rgb(0, 0, 0), rgb(255, 255, 255));&quot;&gt;&lt;b&gt;conv&lt;/b&gt;&lt;/span&gt;&lt;/div&gt;&lt;div&gt;k=1,s=1,p=1&lt;/div&gt;" style="rounded=1;whiteSpace=wrap;html=1;" vertex="1" parent="1">
          <mxGeometry x="1189" y="-967.5" width="89" height="33" as="geometry" />
        </mxCell>
        <mxCell id="RdfNYfSdjUfIYxGeZhfG-99" value="&lt;div style=&quot;text-align: left;&quot;&gt;&lt;span style=&quot;font-size: 14px;&quot;&gt;&lt;b&gt;Conv2d&lt;/b&gt;&lt;/span&gt;&lt;/div&gt;" style="rounded=1;whiteSpace=wrap;html=1;" vertex="1" parent="1">
          <mxGeometry x="1189" y="-903.5" width="89" height="33" as="geometry" />
        </mxCell>
        <mxCell id="RdfNYfSdjUfIYxGeZhfG-105" value="&lt;font style=&quot;font-size: 14px;&quot;&gt;×3&lt;/font&gt;" style="text;html=1;align=center;verticalAlign=middle;whiteSpace=wrap;rounded=0;" vertex="1" parent="1">
          <mxGeometry x="1296" y="-1053.5" width="60" height="30" as="geometry" />
        </mxCell>
        <mxCell id="RdfNYfSdjUfIYxGeZhfG-106" style="edgeStyle=orthogonalEdgeStyle;rounded=0;orthogonalLoop=1;jettySize=auto;html=1;entryX=0.5;entryY=0;entryDx=0;entryDy=0;" edge="1" parent="1" target="RdfNYfSdjUfIYxGeZhfG-104">
          <mxGeometry relative="1" as="geometry">
            <mxPoint x="1146" y="-1210.5" as="sourcePoint" />
            <mxPoint x="1053.33" y="-1150.5" as="targetPoint" />
            <Array as="points">
              <mxPoint x="1231" y="-1210.5" />
            </Array>
          </mxGeometry>
        </mxCell>
        <mxCell id="RdfNYfSdjUfIYxGeZhfG-107" value="" style="endArrow=classic;html=1;rounded=0;" edge="1" parent="1">
          <mxGeometry width="50" height="50" relative="1" as="geometry">
            <mxPoint x="1146" y="-1250.5" as="sourcePoint" />
            <mxPoint x="1146" y="-1210.5" as="targetPoint" />
          </mxGeometry>
        </mxCell>
        <mxCell id="RdfNYfSdjUfIYxGeZhfG-111" style="edgeStyle=orthogonalEdgeStyle;rounded=0;orthogonalLoop=1;jettySize=auto;html=1;" edge="1" parent="1" source="RdfNYfSdjUfIYxGeZhfG-108">
          <mxGeometry relative="1" as="geometry">
            <mxPoint x="1137.75" y="-765" as="targetPoint" />
          </mxGeometry>
        </mxCell>
        <mxCell id="RdfNYfSdjUfIYxGeZhfG-108" value="&lt;b&gt;concat&lt;/b&gt;" style="ellipse;whiteSpace=wrap;html=1;" vertex="1" parent="1">
          <mxGeometry x="1112" y="-820.5" width="51.5" height="29" as="geometry" />
        </mxCell>
        <mxCell id="RdfNYfSdjUfIYxGeZhfG-109" style="edgeStyle=orthogonalEdgeStyle;rounded=0;orthogonalLoop=1;jettySize=auto;html=1;entryX=1;entryY=0.5;entryDx=0;entryDy=0;exitX=0.5;exitY=1;exitDx=0;exitDy=0;" edge="1" parent="1" source="RdfNYfSdjUfIYxGeZhfG-99" target="RdfNYfSdjUfIYxGeZhfG-108">
          <mxGeometry relative="1" as="geometry">
            <Array as="points">
              <mxPoint x="1233" y="-845.5" />
              <mxPoint x="1233" y="-806.5" />
            </Array>
          </mxGeometry>
        </mxCell>
        <mxCell id="RdfNYfSdjUfIYxGeZhfG-113" value="&lt;span style=&quot;font-size: 14px;&quot;&gt;&lt;b&gt;Detect&lt;/b&gt;&lt;/span&gt;" style="text;html=1;align=center;verticalAlign=middle;whiteSpace=wrap;rounded=0;" vertex="1" parent="1">
          <mxGeometry x="924" y="-1291.5" width="74" height="36.5" as="geometry" />
        </mxCell>
        <mxCell id="RdfNYfSdjUfIYxGeZhfG-196" style="edgeStyle=orthogonalEdgeStyle;rounded=0;orthogonalLoop=1;jettySize=auto;html=1;" edge="1" parent="1" source="RdfNYfSdjUfIYxGeZhfG-197" target="RdfNYfSdjUfIYxGeZhfG-199">
          <mxGeometry relative="1" as="geometry" />
        </mxCell>
        <mxCell id="RdfNYfSdjUfIYxGeZhfG-197" value="输入图像" style="text;html=1;align=center;verticalAlign=middle;whiteSpace=wrap;rounded=0;" vertex="1" parent="1">
          <mxGeometry x="-114.25" y="-173" width="133" height="23" as="geometry" />
        </mxCell>
        <mxCell id="RdfNYfSdjUfIYxGeZhfG-198" value="" style="edgeStyle=orthogonalEdgeStyle;rounded=0;orthogonalLoop=1;jettySize=auto;html=1;" edge="1" parent="1" source="RdfNYfSdjUfIYxGeZhfG-199" target="RdfNYfSdjUfIYxGeZhfG-201">
          <mxGeometry relative="1" as="geometry" />
        </mxCell>
        <mxCell id="RdfNYfSdjUfIYxGeZhfG-199" value="&lt;div style=&quot;text-align: left;&quot;&gt;&lt;span style=&quot;font-size: 14px; background-color: transparent; color: light-dark(rgb(0, 0, 0), rgb(255, 255, 255));&quot;&gt;&lt;b&gt;conv&lt;/b&gt;&lt;/span&gt;&lt;/div&gt;&lt;div&gt;k=3,s=2,p=1&lt;/div&gt;" style="rounded=1;whiteSpace=wrap;html=1;fillColor=#dae8fc;strokeColor=#6c8ebf;" vertex="1" parent="1">
          <mxGeometry x="-93.5" y="-92" width="91.5" height="43" as="geometry" />
        </mxCell>
        <mxCell id="RdfNYfSdjUfIYxGeZhfG-200" value="" style="edgeStyle=orthogonalEdgeStyle;rounded=0;orthogonalLoop=1;jettySize=auto;html=1;" edge="1" parent="1" source="RdfNYfSdjUfIYxGeZhfG-201" target="RdfNYfSdjUfIYxGeZhfG-203">
          <mxGeometry relative="1" as="geometry" />
        </mxCell>
        <mxCell id="RdfNYfSdjUfIYxGeZhfG-201" value="&lt;div style=&quot;text-align: left;&quot;&gt;&lt;span style=&quot;font-size: 14px; background-color: transparent; color: light-dark(rgb(0, 0, 0), rgb(255, 255, 255));&quot;&gt;&lt;b&gt;conv&lt;/b&gt;&lt;/span&gt;&lt;/div&gt;&lt;div&gt;k=3,s=2,p=1&lt;/div&gt;" style="rounded=1;whiteSpace=wrap;html=1;fillColor=#dae8fc;strokeColor=#6c8ebf;" vertex="1" parent="1">
          <mxGeometry x="-93.5" y="-4" width="91.5" height="43" as="geometry" />
        </mxCell>
        <mxCell id="RdfNYfSdjUfIYxGeZhfG-202" value="" style="edgeStyle=orthogonalEdgeStyle;rounded=0;orthogonalLoop=1;jettySize=auto;html=1;" edge="1" parent="1" source="RdfNYfSdjUfIYxGeZhfG-203" target="RdfNYfSdjUfIYxGeZhfG-205">
          <mxGeometry relative="1" as="geometry" />
        </mxCell>
        <mxCell id="RdfNYfSdjUfIYxGeZhfG-203" value="&lt;div style=&quot;&quot;&gt;&lt;span style=&quot;font-size: 14px;&quot;&gt;&lt;b&gt;c3k2&lt;/b&gt;&lt;/span&gt;&lt;/div&gt;&lt;div&gt;false&lt;/div&gt;" style="rounded=1;whiteSpace=wrap;html=1;align=center;fillColor=#fff2cc;strokeColor=#d6b656;" vertex="1" parent="1">
          <mxGeometry x="-93.5" y="82" width="91.5" height="43" as="geometry" />
        </mxCell>
        <mxCell id="RdfNYfSdjUfIYxGeZhfG-204" value="" style="edgeStyle=orthogonalEdgeStyle;rounded=0;orthogonalLoop=1;jettySize=auto;html=1;" edge="1" parent="1" source="RdfNYfSdjUfIYxGeZhfG-205" target="RdfNYfSdjUfIYxGeZhfG-208">
          <mxGeometry relative="1" as="geometry" />
        </mxCell>
        <mxCell id="RdfNYfSdjUfIYxGeZhfG-205" value="&lt;div style=&quot;text-align: left;&quot;&gt;&lt;span style=&quot;font-size: 14px; background-color: transparent; color: light-dark(rgb(0, 0, 0), rgb(255, 255, 255));&quot;&gt;&lt;b&gt;conv&lt;/b&gt;&lt;/span&gt;&lt;/div&gt;&lt;div&gt;k=3,s=2,p=1&lt;/div&gt;" style="rounded=1;whiteSpace=wrap;html=1;fillColor=#dae8fc;strokeColor=#6c8ebf;" vertex="1" parent="1">
          <mxGeometry x="-93.25" y="168" width="91.5" height="43" as="geometry" />
        </mxCell>
        <mxCell id="RdfNYfSdjUfIYxGeZhfG-206" style="edgeStyle=orthogonalEdgeStyle;rounded=0;orthogonalLoop=1;jettySize=auto;html=1;entryX=0.5;entryY=0;entryDx=0;entryDy=0;" edge="1" parent="1" source="RdfNYfSdjUfIYxGeZhfG-208" target="RdfNYfSdjUfIYxGeZhfG-210">
          <mxGeometry relative="1" as="geometry" />
        </mxCell>
        <mxCell id="RdfNYfSdjUfIYxGeZhfG-207" style="edgeStyle=orthogonalEdgeStyle;rounded=0;orthogonalLoop=1;jettySize=auto;html=1;entryX=0;entryY=0.5;entryDx=0;entryDy=0;" edge="1" parent="1" source="RdfNYfSdjUfIYxGeZhfG-208" target="RdfNYfSdjUfIYxGeZhfG-249">
          <mxGeometry relative="1" as="geometry" />
        </mxCell>
        <mxCell id="RdfNYfSdjUfIYxGeZhfG-208" value="&lt;div style=&quot;&quot;&gt;&lt;span style=&quot;font-size: 14px;&quot;&gt;&lt;b&gt;c3k2&lt;/b&gt;&lt;/span&gt;&lt;/div&gt;&lt;div&gt;false&lt;/div&gt;" style="rounded=1;whiteSpace=wrap;html=1;align=center;fillColor=#fff2cc;strokeColor=#d6b656;" vertex="1" parent="1">
          <mxGeometry x="-93.25" y="251" width="91.5" height="43" as="geometry" />
        </mxCell>
        <mxCell id="RdfNYfSdjUfIYxGeZhfG-209" style="edgeStyle=orthogonalEdgeStyle;rounded=0;orthogonalLoop=1;jettySize=auto;html=1;entryX=0.5;entryY=0;entryDx=0;entryDy=0;" edge="1" parent="1" source="RdfNYfSdjUfIYxGeZhfG-210" target="RdfNYfSdjUfIYxGeZhfG-213">
          <mxGeometry relative="1" as="geometry" />
        </mxCell>
        <mxCell id="RdfNYfSdjUfIYxGeZhfG-210" value="&lt;div style=&quot;text-align: left;&quot;&gt;&lt;span style=&quot;font-size: 14px; background-color: transparent; color: light-dark(rgb(0, 0, 0), rgb(255, 255, 255));&quot;&gt;&lt;b&gt;conv&lt;/b&gt;&lt;/span&gt;&lt;/div&gt;&lt;div&gt;k=3,s=2,p=1&lt;/div&gt;" style="rounded=1;whiteSpace=wrap;html=1;fillColor=#dae8fc;strokeColor=#6c8ebf;" vertex="1" parent="1">
          <mxGeometry x="-93.25" y="332" width="91.5" height="43" as="geometry" />
        </mxCell>
        <mxCell id="RdfNYfSdjUfIYxGeZhfG-211" style="edgeStyle=orthogonalEdgeStyle;rounded=0;orthogonalLoop=1;jettySize=auto;html=1;entryX=0;entryY=0.5;entryDx=0;entryDy=0;" edge="1" parent="1" source="RdfNYfSdjUfIYxGeZhfG-213" target="RdfNYfSdjUfIYxGeZhfG-240">
          <mxGeometry relative="1" as="geometry" />
        </mxCell>
        <mxCell id="RdfNYfSdjUfIYxGeZhfG-212" style="edgeStyle=orthogonalEdgeStyle;rounded=0;orthogonalLoop=1;jettySize=auto;html=1;" edge="1" parent="1" source="RdfNYfSdjUfIYxGeZhfG-213" target="RdfNYfSdjUfIYxGeZhfG-215">
          <mxGeometry relative="1" as="geometry" />
        </mxCell>
        <mxCell id="RdfNYfSdjUfIYxGeZhfG-213" value="&lt;div style=&quot;&quot;&gt;&lt;span style=&quot;font-size: 14px;&quot;&gt;&lt;b&gt;c3k2&lt;/b&gt;&lt;/span&gt;&lt;/div&gt;&lt;div&gt;true&lt;/div&gt;" style="rounded=1;whiteSpace=wrap;html=1;align=center;fillColor=#fff2cc;strokeColor=#d6b656;" vertex="1" parent="1">
          <mxGeometry x="-93.5" y="413" width="91.5" height="43" as="geometry" />
        </mxCell>
        <mxCell id="RdfNYfSdjUfIYxGeZhfG-214" style="edgeStyle=orthogonalEdgeStyle;rounded=0;orthogonalLoop=1;jettySize=auto;html=1;" edge="1" parent="1" source="RdfNYfSdjUfIYxGeZhfG-215" target="RdfNYfSdjUfIYxGeZhfG-217">
          <mxGeometry relative="1" as="geometry" />
        </mxCell>
        <mxCell id="RdfNYfSdjUfIYxGeZhfG-215" value="&lt;div style=&quot;text-align: left;&quot;&gt;&lt;span style=&quot;font-size: 14px; background-color: transparent; color: light-dark(rgb(0, 0, 0), rgb(255, 255, 255));&quot;&gt;&lt;b&gt;conv&lt;/b&gt;&lt;/span&gt;&lt;/div&gt;&lt;div&gt;k=3,s=2,p=1&lt;/div&gt;" style="rounded=1;whiteSpace=wrap;html=1;fillColor=#dae8fc;strokeColor=#6c8ebf;" vertex="1" parent="1">
          <mxGeometry x="-93.5" y="479" width="91.5" height="43" as="geometry" />
        </mxCell>
        <mxCell id="RdfNYfSdjUfIYxGeZhfG-216" style="edgeStyle=orthogonalEdgeStyle;rounded=0;orthogonalLoop=1;jettySize=auto;html=1;entryX=0.5;entryY=0;entryDx=0;entryDy=0;" edge="1" parent="1" source="RdfNYfSdjUfIYxGeZhfG-217" target="RdfNYfSdjUfIYxGeZhfG-219">
          <mxGeometry relative="1" as="geometry" />
        </mxCell>
        <mxCell id="RdfNYfSdjUfIYxGeZhfG-217" value="&lt;div style=&quot;&quot;&gt;&lt;span style=&quot;font-size: 14px;&quot;&gt;&lt;b&gt;c3k2&lt;/b&gt;&lt;/span&gt;&lt;/div&gt;&lt;div&gt;true&lt;/div&gt;" style="rounded=1;whiteSpace=wrap;html=1;align=center;fillColor=#fff2cc;strokeColor=#d6b656;" vertex="1" parent="1">
          <mxGeometry x="-93.25" y="545" width="91.5" height="43" as="geometry" />
        </mxCell>
        <mxCell id="RdfNYfSdjUfIYxGeZhfG-218" style="edgeStyle=orthogonalEdgeStyle;rounded=0;orthogonalLoop=1;jettySize=auto;html=1;" edge="1" parent="1" source="RdfNYfSdjUfIYxGeZhfG-219" target="RdfNYfSdjUfIYxGeZhfG-222">
          <mxGeometry relative="1" as="geometry" />
        </mxCell>
        <mxCell id="RdfNYfSdjUfIYxGeZhfG-219" value="&lt;div style=&quot;&quot;&gt;&lt;span style=&quot;font-size: 14px;&quot;&gt;&lt;b&gt;SPPF&lt;/b&gt;&lt;/span&gt;&lt;/div&gt;" style="rounded=1;whiteSpace=wrap;html=1;align=center;fillColor=#ffe6cc;strokeColor=#d79b00;" vertex="1" parent="1">
          <mxGeometry x="-93" y="623" width="91.5" height="43" as="geometry" />
        </mxCell>
        <mxCell id="RdfNYfSdjUfIYxGeZhfG-220" style="edgeStyle=orthogonalEdgeStyle;rounded=0;orthogonalLoop=1;jettySize=auto;html=1;entryX=0.5;entryY=1;entryDx=0;entryDy=0;" edge="1" parent="1" source="RdfNYfSdjUfIYxGeZhfG-222" target="RdfNYfSdjUfIYxGeZhfG-224">
          <mxGeometry relative="1" as="geometry" />
        </mxCell>
        <mxCell id="RdfNYfSdjUfIYxGeZhfG-221" style="edgeStyle=orthogonalEdgeStyle;rounded=0;orthogonalLoop=1;jettySize=auto;html=1;" edge="1" parent="1" source="RdfNYfSdjUfIYxGeZhfG-222" target="RdfNYfSdjUfIYxGeZhfG-269">
          <mxGeometry relative="1" as="geometry" />
        </mxCell>
        <mxCell id="RdfNYfSdjUfIYxGeZhfG-222" value="&lt;div style=&quot;&quot;&gt;&lt;span style=&quot;font-size: 14px;&quot;&gt;&lt;b&gt;C2PSA&lt;/b&gt;&lt;/span&gt;&lt;/div&gt;" style="rounded=1;whiteSpace=wrap;html=1;align=center;fillColor=#f5f5f5;fontColor=#333333;strokeColor=#666666;" vertex="1" parent="1">
          <mxGeometry x="-93.5" y="696" width="91.5" height="43" as="geometry" />
        </mxCell>
        <mxCell id="RdfNYfSdjUfIYxGeZhfG-223" style="edgeStyle=orthogonalEdgeStyle;rounded=0;orthogonalLoop=1;jettySize=auto;html=1;entryX=0.5;entryY=1;entryDx=0;entryDy=0;" edge="1" parent="1" source="RdfNYfSdjUfIYxGeZhfG-224" target="RdfNYfSdjUfIYxGeZhfG-240">
          <mxGeometry relative="1" as="geometry" />
        </mxCell>
        <mxCell id="RdfNYfSdjUfIYxGeZhfG-224" value="&lt;div style=&quot;&quot;&gt;&lt;span style=&quot;font-size: 14px;&quot;&gt;&lt;b&gt;Upsample&lt;/b&gt;&lt;/span&gt;&lt;/div&gt;" style="rounded=1;whiteSpace=wrap;html=1;align=center;fillColor=#e1d5e7;strokeColor=#9673a6;" vertex="1" parent="1">
          <mxGeometry x="159.37" y="631" width="91.5" height="43" as="geometry" />
        </mxCell>
        <mxCell id="RdfNYfSdjUfIYxGeZhfG-225" value="3×256×256&lt;div&gt;channel×height×width&lt;/div&gt;" style="text;html=1;align=right;verticalAlign=middle;whiteSpace=wrap;rounded=0;" vertex="1" parent="1">
          <mxGeometry x="-225" y="-127" width="119" height="30" as="geometry" />
        </mxCell>
        <mxCell id="RdfNYfSdjUfIYxGeZhfG-226" value="16×128×128" style="text;html=1;align=center;verticalAlign=middle;whiteSpace=wrap;rounded=0;" vertex="1" parent="1">
          <mxGeometry x="-179" y="-40" width="60" height="30" as="geometry" />
        </mxCell>
        <mxCell id="RdfNYfSdjUfIYxGeZhfG-227" value="32×64×64" style="text;html=1;align=center;verticalAlign=middle;whiteSpace=wrap;rounded=0;" vertex="1" parent="1">
          <mxGeometry x="-182" y="47" width="60" height="30" as="geometry" />
        </mxCell>
        <mxCell id="RdfNYfSdjUfIYxGeZhfG-228" value="64×64×64" style="text;html=1;align=center;verticalAlign=middle;whiteSpace=wrap;rounded=0;" vertex="1" parent="1">
          <mxGeometry x="-179" y="132" width="60" height="30" as="geometry" />
        </mxCell>
        <mxCell id="RdfNYfSdjUfIYxGeZhfG-229" value="64×32×32" style="text;html=1;align=center;verticalAlign=middle;whiteSpace=wrap;rounded=0;" vertex="1" parent="1">
          <mxGeometry x="-179" y="224" width="60" height="30" as="geometry" />
        </mxCell>
        <mxCell id="RdfNYfSdjUfIYxGeZhfG-230" value="128×32×32" style="text;html=1;align=center;verticalAlign=middle;whiteSpace=wrap;rounded=0;" vertex="1" parent="1">
          <mxGeometry x="-179" y="302" width="60" height="30" as="geometry" />
        </mxCell>
        <mxCell id="RdfNYfSdjUfIYxGeZhfG-231" value="128×16×16" style="text;html=1;align=center;verticalAlign=middle;whiteSpace=wrap;rounded=0;" vertex="1" parent="1">
          <mxGeometry x="-177" y="389" width="60" height="30" as="geometry" />
        </mxCell>
        <mxCell id="RdfNYfSdjUfIYxGeZhfG-232" value="128×16×16" style="text;html=1;align=center;verticalAlign=middle;whiteSpace=wrap;rounded=0;" vertex="1" parent="1">
          <mxGeometry x="-177" y="456" width="60" height="30" as="geometry" />
        </mxCell>
        <mxCell id="RdfNYfSdjUfIYxGeZhfG-233" value="256×8×8" style="text;html=1;align=center;verticalAlign=middle;whiteSpace=wrap;rounded=0;" vertex="1" parent="1">
          <mxGeometry x="-179" y="528" width="60" height="30" as="geometry" />
        </mxCell>
        <mxCell id="RdfNYfSdjUfIYxGeZhfG-234" value="&lt;font style=&quot;font-size: 14px;&quot;&gt;YOLO11n&lt;/font&gt;" style="shape=note;whiteSpace=wrap;html=1;backgroundOutline=1;fontColor=#000000;darkOpacity=0.05;fillColor=#FFF9B2;strokeColor=none;fillStyle=solid;direction=west;gradientDirection=north;gradientColor=#FFF2A1;shadow=1;size=20;pointerEvents=1;" vertex="1" parent="1">
          <mxGeometry x="91.25" y="-162" width="91.75" height="37" as="geometry" />
        </mxCell>
        <mxCell id="RdfNYfSdjUfIYxGeZhfG-235" value="256×8×8" style="text;html=1;align=center;verticalAlign=middle;whiteSpace=wrap;rounded=0;" vertex="1" parent="1">
          <mxGeometry x="-179" y="598" width="60" height="30" as="geometry" />
        </mxCell>
        <mxCell id="RdfNYfSdjUfIYxGeZhfG-236" value="256×8×8" style="text;html=1;align=center;verticalAlign=middle;whiteSpace=wrap;rounded=0;" vertex="1" parent="1">
          <mxGeometry x="-177" y="679" width="60" height="30" as="geometry" />
        </mxCell>
        <mxCell id="RdfNYfSdjUfIYxGeZhfG-237" value="256×8×8" style="text;html=1;align=center;verticalAlign=middle;whiteSpace=wrap;rounded=0;" vertex="1" parent="1">
          <mxGeometry x="26.5" y="694" width="60" height="30" as="geometry" />
        </mxCell>
        <mxCell id="RdfNYfSdjUfIYxGeZhfG-238" value="256×16×16" style="text;html=1;align=center;verticalAlign=middle;whiteSpace=wrap;rounded=0;" vertex="1" parent="1">
          <mxGeometry x="121" y="558" width="60" height="30" as="geometry" />
        </mxCell>
        <mxCell id="RdfNYfSdjUfIYxGeZhfG-239" style="edgeStyle=orthogonalEdgeStyle;rounded=0;orthogonalLoop=1;jettySize=auto;html=1;entryX=0.5;entryY=1;entryDx=0;entryDy=0;" edge="1" parent="1" source="RdfNYfSdjUfIYxGeZhfG-240" target="RdfNYfSdjUfIYxGeZhfG-244">
          <mxGeometry relative="1" as="geometry" />
        </mxCell>
        <mxCell id="RdfNYfSdjUfIYxGeZhfG-240" value="&lt;b&gt;&lt;font style=&quot;font-size: 14px;&quot;&gt;concat&lt;/font&gt;&lt;/b&gt;" style="ellipse;whiteSpace=wrap;html=1;" vertex="1" parent="1">
          <mxGeometry x="168.12" y="416" width="74" height="37" as="geometry" />
        </mxCell>
        <mxCell id="RdfNYfSdjUfIYxGeZhfG-241" value="384×16×16" style="text;html=1;align=center;verticalAlign=middle;whiteSpace=wrap;rounded=0;" vertex="1" parent="1">
          <mxGeometry x="105" y="393" width="60" height="30" as="geometry" />
        </mxCell>
        <mxCell id="RdfNYfSdjUfIYxGeZhfG-242" style="edgeStyle=orthogonalEdgeStyle;rounded=0;orthogonalLoop=1;jettySize=auto;html=1;" edge="1" parent="1" source="RdfNYfSdjUfIYxGeZhfG-244" target="RdfNYfSdjUfIYxGeZhfG-247">
          <mxGeometry relative="1" as="geometry" />
        </mxCell>
        <mxCell id="RdfNYfSdjUfIYxGeZhfG-243" style="edgeStyle=orthogonalEdgeStyle;rounded=0;orthogonalLoop=1;jettySize=auto;html=1;" edge="1" parent="1" source="RdfNYfSdjUfIYxGeZhfG-244" target="RdfNYfSdjUfIYxGeZhfG-258">
          <mxGeometry relative="1" as="geometry" />
        </mxCell>
        <mxCell id="RdfNYfSdjUfIYxGeZhfG-244" value="&lt;div style=&quot;&quot;&gt;&lt;span style=&quot;font-size: 14px;&quot;&gt;&lt;b&gt;c3k2&lt;/b&gt;&lt;/span&gt;&lt;/div&gt;&lt;div&gt;false&lt;/div&gt;" style="rounded=1;whiteSpace=wrap;html=1;align=center;fillColor=#fff2cc;strokeColor=#d6b656;" vertex="1" parent="1">
          <mxGeometry x="159.37" y="343" width="91.5" height="43" as="geometry" />
        </mxCell>
        <mxCell id="RdfNYfSdjUfIYxGeZhfG-245" value="128×16×16" style="text;html=1;align=center;verticalAlign=middle;whiteSpace=wrap;rounded=0;" vertex="1" parent="1">
          <mxGeometry x="112" y="309" width="60" height="30" as="geometry" />
        </mxCell>
        <mxCell id="RdfNYfSdjUfIYxGeZhfG-246" style="edgeStyle=orthogonalEdgeStyle;rounded=0;orthogonalLoop=1;jettySize=auto;html=1;entryX=0.5;entryY=1;entryDx=0;entryDy=0;" edge="1" parent="1" source="RdfNYfSdjUfIYxGeZhfG-247" target="RdfNYfSdjUfIYxGeZhfG-249">
          <mxGeometry relative="1" as="geometry" />
        </mxCell>
        <mxCell id="RdfNYfSdjUfIYxGeZhfG-247" value="&lt;div style=&quot;&quot;&gt;&lt;span style=&quot;font-size: 14px;&quot;&gt;&lt;b&gt;Upsample&lt;/b&gt;&lt;/span&gt;&lt;/div&gt;" style="rounded=1;whiteSpace=wrap;html=1;align=center;fillColor=#e1d5e7;strokeColor=#9673a6;" vertex="1" parent="1">
          <mxGeometry x="159.37" y="254" width="91.5" height="43" as="geometry" />
        </mxCell>
        <mxCell id="RdfNYfSdjUfIYxGeZhfG-248" style="edgeStyle=orthogonalEdgeStyle;rounded=0;orthogonalLoop=1;jettySize=auto;html=1;entryX=0.5;entryY=1;entryDx=0;entryDy=0;" edge="1" parent="1" source="RdfNYfSdjUfIYxGeZhfG-249" target="RdfNYfSdjUfIYxGeZhfG-252">
          <mxGeometry relative="1" as="geometry" />
        </mxCell>
        <mxCell id="RdfNYfSdjUfIYxGeZhfG-249" value="&lt;b&gt;&lt;font style=&quot;font-size: 14px;&quot;&gt;concat&lt;/font&gt;&lt;/b&gt;" style="ellipse;whiteSpace=wrap;html=1;" vertex="1" parent="1">
          <mxGeometry x="168.81" y="153" width="74" height="37" as="geometry" />
        </mxCell>
        <mxCell id="RdfNYfSdjUfIYxGeZhfG-250" style="edgeStyle=orthogonalEdgeStyle;rounded=0;orthogonalLoop=1;jettySize=auto;html=1;entryX=0.5;entryY=0;entryDx=0;entryDy=0;" edge="1" parent="1" source="RdfNYfSdjUfIYxGeZhfG-252" target="RdfNYfSdjUfIYxGeZhfG-256">
          <mxGeometry relative="1" as="geometry" />
        </mxCell>
        <mxCell id="RdfNYfSdjUfIYxGeZhfG-251" style="edgeStyle=orthogonalEdgeStyle;rounded=0;orthogonalLoop=1;jettySize=auto;html=1;entryX=0;entryY=0.5;entryDx=0;entryDy=0;" edge="1" parent="1" source="RdfNYfSdjUfIYxGeZhfG-252" target="RdfNYfSdjUfIYxGeZhfG-274">
          <mxGeometry relative="1" as="geometry" />
        </mxCell>
        <mxCell id="RdfNYfSdjUfIYxGeZhfG-252" value="&lt;div style=&quot;&quot;&gt;&lt;span style=&quot;font-size: 14px;&quot;&gt;&lt;b&gt;c3k2&lt;/b&gt;&lt;/span&gt;&lt;/div&gt;&lt;div&gt;false&lt;/div&gt;" style="rounded=1;whiteSpace=wrap;html=1;align=center;fillColor=#fff2cc;strokeColor=#d6b656;" vertex="1" parent="1">
          <mxGeometry x="159.37" y="63" width="91.5" height="43" as="geometry" />
        </mxCell>
        <mxCell id="RdfNYfSdjUfIYxGeZhfG-253" value="128×32×32" style="text;html=1;align=center;verticalAlign=middle;whiteSpace=wrap;rounded=0;" vertex="1" parent="1">
          <mxGeometry x="127" y="213" width="60" height="30" as="geometry" />
        </mxCell>
        <mxCell id="RdfNYfSdjUfIYxGeZhfG-254" value="256×32×32" style="text;html=1;align=center;verticalAlign=middle;whiteSpace=wrap;rounded=0;" vertex="1" parent="1">
          <mxGeometry x="105" y="125" width="60" height="30" as="geometry" />
        </mxCell>
        <mxCell id="RdfNYfSdjUfIYxGeZhfG-255" style="edgeStyle=orthogonalEdgeStyle;rounded=0;orthogonalLoop=1;jettySize=auto;html=1;" edge="1" parent="1" source="RdfNYfSdjUfIYxGeZhfG-256" target="RdfNYfSdjUfIYxGeZhfG-258">
          <mxGeometry relative="1" as="geometry" />
        </mxCell>
        <mxCell id="RdfNYfSdjUfIYxGeZhfG-256" value="&lt;div style=&quot;text-align: left;&quot;&gt;&lt;span style=&quot;font-size: 14px; background-color: transparent; color: light-dark(rgb(0, 0, 0), rgb(255, 255, 255));&quot;&gt;&lt;b&gt;conv&lt;/b&gt;&lt;/span&gt;&lt;/div&gt;&lt;div&gt;k=3,s=2,p=1&lt;/div&gt;" style="rounded=1;whiteSpace=wrap;html=1;fillColor=#dae8fc;strokeColor=#6c8ebf;" vertex="1" parent="1">
          <mxGeometry x="356" y="150" width="91.5" height="43" as="geometry" />
        </mxCell>
        <mxCell id="RdfNYfSdjUfIYxGeZhfG-257" style="edgeStyle=orthogonalEdgeStyle;rounded=0;orthogonalLoop=1;jettySize=auto;html=1;" edge="1" parent="1" source="RdfNYfSdjUfIYxGeZhfG-258" target="RdfNYfSdjUfIYxGeZhfG-261">
          <mxGeometry relative="1" as="geometry" />
        </mxCell>
        <mxCell id="RdfNYfSdjUfIYxGeZhfG-258" value="&lt;b&gt;&lt;font style=&quot;font-size: 14px;&quot;&gt;concat&lt;/font&gt;&lt;/b&gt;" style="ellipse;whiteSpace=wrap;html=1;" vertex="1" parent="1">
          <mxGeometry x="365" y="346" width="74" height="37" as="geometry" />
        </mxCell>
        <mxCell id="RdfNYfSdjUfIYxGeZhfG-259" style="edgeStyle=orthogonalEdgeStyle;rounded=0;orthogonalLoop=1;jettySize=auto;html=1;" edge="1" parent="1" source="RdfNYfSdjUfIYxGeZhfG-261" target="RdfNYfSdjUfIYxGeZhfG-267">
          <mxGeometry relative="1" as="geometry" />
        </mxCell>
        <mxCell id="RdfNYfSdjUfIYxGeZhfG-260" style="edgeStyle=orthogonalEdgeStyle;rounded=0;orthogonalLoop=1;jettySize=auto;html=1;" edge="1" parent="1" source="RdfNYfSdjUfIYxGeZhfG-261" target="RdfNYfSdjUfIYxGeZhfG-275">
          <mxGeometry relative="1" as="geometry" />
        </mxCell>
        <mxCell id="RdfNYfSdjUfIYxGeZhfG-261" value="&lt;div style=&quot;&quot;&gt;&lt;span style=&quot;font-size: 14px;&quot;&gt;&lt;b&gt;c3k2&lt;/b&gt;&lt;/span&gt;&lt;/div&gt;&lt;div&gt;false&lt;/div&gt;" style="rounded=1;whiteSpace=wrap;html=1;align=center;fillColor=#fff2cc;strokeColor=#d6b656;" vertex="1" parent="1">
          <mxGeometry x="356.25" y="443" width="91.5" height="43" as="geometry" />
        </mxCell>
        <mxCell id="RdfNYfSdjUfIYxGeZhfG-262" value="64×32×32" style="text;html=1;align=center;verticalAlign=middle;whiteSpace=wrap;rounded=0;" vertex="1" parent="1">
          <mxGeometry x="288" y="47" width="60" height="30" as="geometry" />
        </mxCell>
        <mxCell id="RdfNYfSdjUfIYxGeZhfG-263" value="64×16×16" style="text;html=1;align=center;verticalAlign=middle;whiteSpace=wrap;rounded=0;" vertex="1" parent="1">
          <mxGeometry x="317.75" y="193" width="60" height="30" as="geometry" />
        </mxCell>
        <mxCell id="RdfNYfSdjUfIYxGeZhfG-264" value="256×16×16" style="text;html=1;align=center;verticalAlign=middle;whiteSpace=wrap;rounded=0;" vertex="1" parent="1">
          <mxGeometry x="328.75" y="396" width="60" height="30" as="geometry" />
        </mxCell>
        <mxCell id="RdfNYfSdjUfIYxGeZhfG-265" value="128×16×16" style="text;html=1;align=center;verticalAlign=middle;whiteSpace=wrap;rounded=0;" vertex="1" parent="1">
          <mxGeometry x="335.5" y="492" width="60" height="30" as="geometry" />
        </mxCell>
        <mxCell id="RdfNYfSdjUfIYxGeZhfG-266" style="edgeStyle=orthogonalEdgeStyle;rounded=0;orthogonalLoop=1;jettySize=auto;html=1;" edge="1" parent="1" source="RdfNYfSdjUfIYxGeZhfG-267" target="RdfNYfSdjUfIYxGeZhfG-269">
          <mxGeometry relative="1" as="geometry" />
        </mxCell>
        <mxCell id="RdfNYfSdjUfIYxGeZhfG-267" value="&lt;div style=&quot;text-align: left;&quot;&gt;&lt;span style=&quot;font-size: 14px; background-color: transparent; color: light-dark(rgb(0, 0, 0), rgb(255, 255, 255));&quot;&gt;&lt;b&gt;conv&lt;/b&gt;&lt;/span&gt;&lt;/div&gt;&lt;div&gt;k=3,s=2,p=1&lt;/div&gt;" style="rounded=1;whiteSpace=wrap;html=1;fillColor=#dae8fc;strokeColor=#6c8ebf;" vertex="1" parent="1">
          <mxGeometry x="356.25" y="558" width="91.5" height="43" as="geometry" />
        </mxCell>
        <mxCell id="RdfNYfSdjUfIYxGeZhfG-268" style="edgeStyle=orthogonalEdgeStyle;rounded=0;orthogonalLoop=1;jettySize=auto;html=1;entryX=0;entryY=0.5;entryDx=0;entryDy=0;" edge="1" parent="1" source="RdfNYfSdjUfIYxGeZhfG-269" target="RdfNYfSdjUfIYxGeZhfG-271">
          <mxGeometry relative="1" as="geometry" />
        </mxCell>
        <mxCell id="RdfNYfSdjUfIYxGeZhfG-269" value="&lt;b&gt;&lt;font style=&quot;font-size: 14px;&quot;&gt;concat&lt;/font&gt;&lt;/b&gt;" style="ellipse;whiteSpace=wrap;html=1;" vertex="1" parent="1">
          <mxGeometry x="365.5" y="699" width="74" height="37" as="geometry" />
        </mxCell>
        <mxCell id="RdfNYfSdjUfIYxGeZhfG-270" style="edgeStyle=orthogonalEdgeStyle;rounded=0;orthogonalLoop=1;jettySize=auto;html=1;entryX=0;entryY=0.5;entryDx=0;entryDy=0;" edge="1" parent="1" source="RdfNYfSdjUfIYxGeZhfG-271" target="RdfNYfSdjUfIYxGeZhfG-276">
          <mxGeometry relative="1" as="geometry" />
        </mxCell>
        <mxCell id="RdfNYfSdjUfIYxGeZhfG-271" value="&lt;div style=&quot;&quot;&gt;&lt;span style=&quot;font-size: 14px;&quot;&gt;&lt;b&gt;c3k2&lt;/b&gt;&lt;/span&gt;&lt;/div&gt;&lt;div&gt;true&lt;/div&gt;" style="rounded=1;whiteSpace=wrap;html=1;align=center;fillColor=#fff2cc;strokeColor=#d6b656;" vertex="1" parent="1">
          <mxGeometry x="509" y="696" width="91.5" height="43" as="geometry" />
        </mxCell>
        <mxCell id="RdfNYfSdjUfIYxGeZhfG-272" value="128×8×8" style="text;html=1;align=center;verticalAlign=middle;whiteSpace=wrap;rounded=0;" vertex="1" parent="1">
          <mxGeometry x="335.5" y="628" width="60" height="30" as="geometry" />
        </mxCell>
        <mxCell id="RdfNYfSdjUfIYxGeZhfG-273" value="384×8×8" style="text;html=1;align=center;verticalAlign=middle;whiteSpace=wrap;rounded=0;" vertex="1" parent="1">
          <mxGeometry x="440.5" y="687" width="60" height="30" as="geometry" />
        </mxCell>
        <mxCell id="RdfNYfSdjUfIYxGeZhfG-274" value="&lt;div style=&quot;&quot;&gt;&lt;span style=&quot;font-size: 14px;&quot;&gt;&lt;b&gt;Detect&lt;/b&gt;&lt;/span&gt;&lt;/div&gt;" style="rounded=1;whiteSpace=wrap;html=1;align=center;fillColor=#d5e8d4;strokeColor=#82b366;" vertex="1" parent="1">
          <mxGeometry x="668.25" y="64" width="91.5" height="43" as="geometry" />
        </mxCell>
        <mxCell id="RdfNYfSdjUfIYxGeZhfG-275" value="&lt;div style=&quot;&quot;&gt;&lt;span style=&quot;font-size: 14px;&quot;&gt;&lt;b&gt;Detect&lt;/b&gt;&lt;/span&gt;&lt;/div&gt;" style="rounded=1;whiteSpace=wrap;html=1;align=center;fillColor=#d5e8d4;strokeColor=#82b366;" vertex="1" parent="1">
          <mxGeometry x="657.25" y="443" width="91.5" height="43" as="geometry" />
        </mxCell>
        <mxCell id="RdfNYfSdjUfIYxGeZhfG-276" value="&lt;div style=&quot;&quot;&gt;&lt;span style=&quot;font-size: 14px;&quot;&gt;&lt;b&gt;Detect&lt;/b&gt;&lt;/span&gt;&lt;/div&gt;" style="rounded=1;whiteSpace=wrap;html=1;align=center;fillColor=#d5e8d4;strokeColor=#82b366;" vertex="1" parent="1">
          <mxGeometry x="656.88" y="696" width="91.5" height="43" as="geometry" />
        </mxCell>
        <mxCell id="RdfNYfSdjUfIYxGeZhfG-277" value="256×8×8" style="text;html=1;align=center;verticalAlign=middle;whiteSpace=wrap;rounded=0;" vertex="1" parent="1">
          <mxGeometry x="582.5" y="664" width="60" height="30" as="geometry" />
        </mxCell>
      </root>
    </mxGraphModel>
  </diagram>
</mxfile>
